ISO-10303-21;
HEADER;
FILE_DESCRIPTION (( 'STEP AP214' ),
    '1' );
FILE_NAME ('Shell Left.STEP',
    '2025-11-09T17:52:21',
    ( '' ),
    ( '' ),
    'SwSTEP 2.0',
    'SolidWorks 2024',
    '' );
FILE_SCHEMA (( 'AUTOMOTIVE_DESIGN' ));
ENDSEC;

DATA;
#1 = EDGE_LOOP ( 'NONE', ( #576, #509, #104, #84 ) ) ;
#2 = CARTESIAN_POINT ( 'NONE',  ( 0.000000000000000000, 1.500000000000000000, -6.999999999999997335 ) ) ;
#3 = LINE ( 'NONE', #1142, #294 ) ;
#4 = FILL_AREA_STYLE_COLOUR ( '', #1100 ) ;
#5 = LINE ( 'NONE', #390, #992 ) ;
#6 = ORIENTED_EDGE ( 'NONE', *, *, #63, .F. ) ;
#7 = ORIENTED_EDGE ( 'NONE', *, *, #895, .F. ) ;
#8 = DIRECTION ( 'NONE',  ( 1.000000000000000000, 0.000000000000000000, 0.000000000000000000 ) ) ;
#9 = CARTESIAN_POINT ( 'NONE',  ( 0.000000000000000000, 1.500000000000000000, 0.000000000000000000 ) ) ;
#10 = AXIS2_PLACEMENT_3D ( 'NONE', #54, #812, #1013 ) ;
#11 = VECTOR ( 'NONE', #101, 1000.000000000000000 ) ;
#12 = DIRECTION ( 'NONE',  ( -1.000000000000000000, 0.000000000000000000, 0.000000000000000000 ) ) ;
#13 = CARTESIAN_POINT ( 'NONE',  ( -19.50000000000000000, 30.50000000000000355, 3.061616997868379197E-16 ) ) ;
#14 = AXIS2_PLACEMENT_3D ( 'NONE', #1177, #619, #527 ) ;
#15 = VECTOR ( 'NONE', #677, 1000.000000000000000 ) ;
#16 = EDGE_LOOP ( 'NONE', ( #921 ) ) ;
#17 = DIRECTION ( 'NONE',  ( 0.000000000000000000, -0.000000000000000000, 1.000000000000000000 ) ) ;
#18 = LINE ( 'NONE', #671, #423 ) ;
#19 = ORIENTED_EDGE ( 'NONE', *, *, #1071, .F. ) ;
#20 = EDGE_CURVE ( 'NONE', #732, #238, #685, .T. ) ;
#21 = LINE ( 'NONE', #896, #1102 ) ;
#22 = CARTESIAN_POINT ( 'NONE',  ( -19.49999999999999645, 25.00000000000000000, 0.000000000000000000 ) ) ;
#23 = EDGE_CURVE ( 'NONE', #1038, #981, #841, .T. ) ;
#24 = DIRECTION ( 'NONE',  ( -0.000000000000000000, -1.000000000000000000, -0.000000000000000000 ) ) ;
#25 = ORIENTED_EDGE ( 'NONE', *, *, #190, .T. ) ;
#26 = APPLICATION_CONTEXT ( 'automotive_design' ) ;
#27 = CARTESIAN_POINT ( 'NONE',  ( -19.50000000000000000, 13.99999999999999645, -6.500000000000000888 ) ) ;
#28 = EDGE_CURVE ( 'NONE', #1110, #348, #820, .T. ) ;
#29 = DIRECTION ( 'NONE',  ( 0.000000000000000000, 0.000000000000000000, 1.000000000000000000 ) ) ;
#30 = VERTEX_POINT ( 'NONE', #220 ) ;
#31 = VECTOR ( 'NONE', #617, 1000.000000000000000 ) ;
#32 = VECTOR ( 'NONE', #886, 1000.000000000000000 ) ;
#33 = VECTOR ( 'NONE', #329, 1000.000000000000000 ) ;
#34 = CARTESIAN_POINT ( 'NONE',  ( 16.50000000000000000, 1.500000000000000000, -6.999999999999997335 ) ) ;
#35 = CARTESIAN_POINT ( 'NONE',  ( -17.49999999999999645, 8.500000000000000000, 12.36396103067892938 ) ) ;
#36 = CARTESIAN_POINT ( 'NONE',  ( 2.549591630525155963E-31, 0.000000000000000000, -2.081899558550499885E-15 ) ) ;
#37 = DIRECTION ( 'NONE',  ( 1.000000000000000000, 0.000000000000000000, -2.224004456380503661E-16 ) ) ;
#38 = ORIENTED_EDGE ( 'NONE', *, *, #146, .F. ) ;
#39 = DIRECTION ( 'NONE',  ( 1.000000000000000000, 0.000000000000000000, 0.000000000000000000 ) ) ;
#40 = PLANE ( 'NONE',  #531 ) ;
#41 = EDGE_CURVE ( 'NONE', #675, #446, #1230, .T. ) ;
#42 = ORIENTED_EDGE ( 'NONE', *, *, #248, .T. ) ;
#43 = CARTESIAN_POINT ( 'NONE',  ( 3.673940397442055924E-16, 1.500000000000000000, 2.999999999999997780 ) ) ;
#44 = CARTESIAN_POINT ( 'NONE',  ( -19.49999999999999645, 11.00000000000000000, 0.000000000000000000 ) ) ;
#45 = AXIS2_PLACEMENT_3D ( 'NONE', #1120, #1032, #258 ) ;
#46 = AXIS2_PLACEMENT_3D ( 'NONE', #889, #136, #1080 ) ;
#47 = ORIENTED_EDGE ( 'NONE', *, *, #1037, .F. ) ;
#48 = EDGE_CURVE ( 'NONE', #732, #1136, #295, .T. ) ;
#49 = FACE_OUTER_BOUND ( 'NONE', #1, .T. ) ;
#50 = AXIS2_PLACEMENT_3D ( 'NONE', #254, #632, #464 ) ;
#51 = PLANE ( 'NONE',  #612 ) ;
#52 = APPLICATION_PROTOCOL_DEFINITION ( 'draft international standard', 'automotive_design', 1998, #26 ) ;
#53 = ORIENTED_EDGE ( 'NONE', *, *, #241, .F. ) ;
#54 = CARTESIAN_POINT ( 'NONE',  ( -19.00000000000000000, 10.80488611432322266, 12.36396103067892938 ) ) ;
#55 = DIRECTION ( 'NONE',  ( 0.000000000000000000, 0.000000000000000000, 1.000000000000000000 ) ) ;
#56 = EDGE_CURVE ( 'NONE', #811, #537, #672, .T. ) ;
#57 = ORIENTED_EDGE ( 'NONE', *, *, #48, .T. ) ;
#58 = CARTESIAN_POINT ( 'NONE',  ( -19.49999999999999645, 10.99999999999999822, -6.500000000000000000 ) ) ;
#59 = ORIENTED_EDGE ( 'NONE', *, *, #1147, .T. ) ;
#60 = PLANE ( 'NONE',  #1005 ) ;
#61 = DIRECTION ( 'NONE',  ( -1.224646799147352714E-16, 0.000000000000000000, -1.000000000000000000 ) ) ;
#62 = ORIENTED_EDGE ( 'NONE', *, *, #377, .F. ) ;
#63 = EDGE_CURVE ( 'NONE', #489, #446, #412, .T. ) ;
#64 = DIRECTION ( 'NONE',  ( 0.000000000000000000, -0.000000000000000000, 1.000000000000000000 ) ) ;
#65 = EDGE_LOOP ( 'NONE', ( #488, #1041, #953, #836, #357 ) ) ;
#66 = AXIS2_PLACEMENT_3D ( 'NONE', #477, #683, #1045 ) ;
#67 = DIRECTION ( 'NONE',  ( -1.000000000000000000, 0.000000000000000000, 0.000000000000000000 ) ) ;
#68 = AXIS2_PLACEMENT_3D ( 'NONE', #27, #415, #706 ) ;
#69 = AXIS2_PLACEMENT_3D ( 'NONE', #618, #323, #1184 ) ;
#70 = VECTOR ( 'NONE', #1026, 1000.000000000000000 ) ;
#71 = CARTESIAN_POINT ( 'NONE',  ( 17.99999999999999645, 29.00000000000000000, 2.422649730810355617 ) ) ;
#72 = MANIFOLD_SOLID_BREP ( 'Chamfer1', #148 ) ;
#73 = ORIENTED_EDGE ( 'NONE', *, *, #1037, .T. ) ;
#74 = CARTESIAN_POINT ( 'NONE',  ( -19.50000000000000000, 1.500000000000000000, 3.061616997868379197E-16 ) ) ;
#75 = ORIENTED_EDGE ( 'NONE', *, *, #1199, .F. ) ;
#76 = CARTESIAN_POINT ( 'NONE',  ( 19.50000000000000000, 1.500000000000000000, -9.500000000000000000 ) ) ;
#77 = DIRECTION ( 'NONE',  ( -1.224646799147352714E-16, 0.000000000000000000, -1.000000000000000000 ) ) ;
#78 = ORIENTED_EDGE ( 'NONE', *, *, #956, .T. ) ;
#79 = CARTESIAN_POINT ( 'NONE',  ( 0.000000000000000000, 0.000000000000000000, -6.999999999999997335 ) ) ;
#80 = EDGE_CURVE ( 'NONE', #934, #681, #859, .T. ) ;
#81 = ORIENTED_EDGE ( 'NONE', *, *, #402, .T. ) ;
#82 = CARTESIAN_POINT ( 'NONE',  ( 19.50000000000000000, 26.43826230851011161, -9.500000000000000000 ) ) ;
#83 = CARTESIAN_POINT ( 'NONE',  ( -2.549591630525155963E-31, 1.500000000000000000, -2.081899558550499885E-15 ) ) ;
#84 = ORIENTED_EDGE ( 'NONE', *, *, #1018, .T. ) ;
#85 = CARTESIAN_POINT ( 'NONE',  ( 21.49999999999999645, 29.50000000000000355, -4.714892376317814179E-15 ) ) ;
#86 = ORIENTED_EDGE ( 'NONE', *, *, #80, .T. ) ;
#87 = CYLINDRICAL_SURFACE ( 'NONE', #169, 2.249999999999998668 ) ;
#88 = AXIS2_PLACEMENT_3D ( 'NONE', #884, #1001, #29 ) ;
#89 = AXIS2_PLACEMENT_3D ( 'NONE', #587, #486, #573 ) ;
#90 = EDGE_CURVE ( 'NONE', #831, #489, #986, .T. ) ;
#91 = CARTESIAN_POINT ( 'NONE',  ( -21.50000000000000000, 11.00000000000000000, 0.000000000000000000 ) ) ;
#92 = AXIS2_PLACEMENT_3D ( 'NONE', #647, #64, #556 ) ;
#93 = CONICAL_SURFACE ( 'NONE', #710, 0.9499999999999995115, 1.047197551196598742 ) ;
#94 = DIRECTION ( 'NONE',  ( 0.000000000000000000, -1.000000000000000000, -0.000000000000000000 ) ) ;
#95 = LINE ( 'NONE', #823, #611 ) ;
#96 = VERTEX_POINT ( 'NONE', #1096 ) ;
#97 = CARTESIAN_POINT ( 'NONE',  ( -21.50000000000000000, 25.00000000000000000, 0.000000000000000000 ) ) ;
#98 = EDGE_CURVE ( 'NONE', #1133, #406, #240, .T. ) ;
#99 = LINE ( 'NONE', #485, #437 ) ;
#100 = EDGE_CURVE ( 'NONE', #408, #780, #433, .T. ) ;
#101 = DIRECTION ( 'NONE',  ( -0.000000000000000000, -1.000000000000000000, -0.000000000000000000 ) ) ;
#102 = DIRECTION ( 'NONE',  ( 0.000000000000000000, 0.000000000000000000, 1.000000000000000000 ) ) ;
#103 = EDGE_LOOP ( 'NONE', ( #78 ) ) ;
#104 = ORIENTED_EDGE ( 'NONE', *, *, #779, .T. ) ;
#105 = CYLINDRICAL_SURFACE ( 'NONE', #394, 0.9499999999999995115 ) ;
#106 = LINE ( 'NONE', #873, #748 ) ;
#107 = ORIENTED_EDGE ( 'NONE', *, *, #1112, .F. ) ;
#108 = LINE ( 'NONE', #582, #550 ) ;
#109 = ORIENTED_EDGE ( 'NONE', *, *, #724, .F. ) ;
#110 = EDGE_CURVE ( 'NONE', #679, #1133, #808, .T. ) ;
#111 = ORIENTED_EDGE ( 'NONE', *, *, #28, .T. ) ;
#112 = CARTESIAN_POINT ( 'NONE',  ( -18.72727272727272663, 6.614184088281001905, 1.502975617135403546E-16 ) ) ;
#113 = FACE_OUTER_BOUND ( 'NONE', #714, .T. ) ;
#114 = CIRCLE ( 'NONE', #609, 0.5000000000000004441 ) ;
#115 = ORIENTED_EDGE ( 'NONE', *, *, #687, .F. ) ;
#116 = CARTESIAN_POINT ( 'NONE',  ( 0.000000000000000000, 32.50000000000000000, -11.50000000000000000 ) ) ;
#117 = ORIENTED_EDGE ( 'NONE', *, *, #48, .F. ) ;
#118 = ADVANCED_FACE ( 'NONE', ( #1191 ), #613, .F. ) ;
#119 = FACE_OUTER_BOUND ( 'NONE', #567, .T. ) ;
#120 = CARTESIAN_POINT ( 'NONE',  ( -21.50000000000000000, 13.99999999999999645, -6.500000000000000888 ) ) ;
#121 = DIRECTION ( 'NONE',  ( 0.000000000000000000, 0.000000000000000000, -1.000000000000000000 ) ) ;
#122 = CARTESIAN_POINT ( 'NONE',  ( 19.95000000000002416, 29.00000000000000000, 2.999999999999995115 ) ) ;
#123 = ORIENTED_EDGE ( 'NONE', *, *, #945, .T. ) ;
#124 = EDGE_CURVE ( 'NONE', #408, #863, #894, .T. ) ;
#125 = CARTESIAN_POINT ( 'NONE',  ( 3.673940397442055924E-16, 1.500000000000000000, 2.999999999999997780 ) ) ;
#126 = PLANE ( 'NONE',  #147 ) ;
#127 =( LENGTH_UNIT ( ) NAMED_UNIT ( * ) SI_UNIT ( .MILLI., .METRE. ) );
#128 = CARTESIAN_POINT ( 'NONE',  ( -21.50000000000000000, 1.500000000000000000, 2.449293598294703949E-16 ) ) ;
#129 = ORIENTED_EDGE ( 'NONE', *, *, #982, .F. ) ;
#130 = DIRECTION ( 'NONE',  ( -0.000000000000000000, -1.000000000000000000, -0.000000000000000000 ) ) ;
#131 = DIRECTION ( 'NONE',  ( -0.000000000000000000, -1.000000000000000000, -0.000000000000000000 ) ) ;
#132 = CARTESIAN_POINT ( 'NONE',  ( -18.50000000000000000, 29.50000000000000355, -11.50000000000000000 ) ) ;
#133 = AXIS2_PLACEMENT_3D ( 'NONE', #621, #1210, #67 ) ;
#134 = AXIS2_PLACEMENT_3D ( 'NONE', #843, #1111, #1132 ) ;
#135 = AXIS2_PLACEMENT_3D ( 'NONE', #1122, #443, #839 ) ;
#136 = DIRECTION ( 'NONE',  ( 0.000000000000000000, 1.000000000000000000, -0.000000000000000000 ) ) ;
#137 = CARTESIAN_POINT ( 'NONE',  ( -19.49999999999999645, 25.00000000000000000, -9.500000000000000000 ) ) ;
#138 = CARTESIAN_POINT ( 'NONE',  ( -19.49999999999999645, 25.00000000000000000, -9.500000000000000000 ) ) ;
#139 = ORIENTED_EDGE ( 'NONE', *, *, #724, .T. ) ;
#140 = DIRECTION ( 'NONE',  ( 0.000000000000000000, -0.000000000000000000, 1.000000000000000000 ) ) ;
#141 = CARTESIAN_POINT ( 'NONE',  ( -19.00000000000000000, 30.50000000000000355, -9.500000000000000000 ) ) ;
#142 = EDGE_CURVE ( 'NONE', #278, #919, #907, .T. ) ;
#143 = ORIENTED_EDGE ( 'NONE', *, *, #942, .T. ) ;
#144 = CARTESIAN_POINT ( 'NONE',  ( 19.50000000000000000, 1.500000000000000000, 3.061616997868376239E-16 ) ) ;
#145 = SHAPE_DEFINITION_REPRESENTATION ( #460, #1076 ) ;
#146 = EDGE_CURVE ( 'NONE', #1113, #327, #980, .T. ) ;
#147 = AXIS2_PLACEMENT_3D ( 'NONE', #615, #526, #1074 ) ;
#148 = CLOSED_SHELL ( 'NONE', ( #999, #212, #172, #760, #597, #374, #985, #1107, #1086, #290, #1158, #729, #923, #200, #1095, #340, #118, #838, #557, #417, #968, #1043, #157, #332, #492, #602, #1078, #849, #830, #899, #563, #325, #538, #718, #752, #1115, #650, #638, #318, #424 ) ) ;
#149 = CIRCLE ( 'NONE', #236, 0.9499999999999995115 ) ;
#150 = ORIENTED_EDGE ( 'NONE', *, *, #713, .T. ) ;
#151 = CIRCLE ( 'NONE', #353, 0.9499999999999995115 ) ;
#152 = EDGE_CURVE ( 'NONE', #919, #1117, #1176, .T. ) ;
#153 = DIRECTION ( 'NONE',  ( -1.000000000000000000, 0.000000000000000000, 0.000000000000000000 ) ) ;
#154 = VECTOR ( 'NONE', #373, 1000.000000000000000 ) ;
#155 = CYLINDRICAL_SURFACE ( 'NONE', #375, 2.250000000000001776 ) ;
#156 = CARTESIAN_POINT ( 'NONE',  ( -18.50000000000000000, 29.50000000000000355, 0.000000000000000000 ) ) ;
#157 = ADVANCED_FACE ( 'NONE', ( #244 ), #703, .F. ) ;
#158 = EDGE_LOOP ( 'NONE', ( #657, #107, #308, #642 ) ) ;
#159 = CARTESIAN_POINT ( 'NONE',  ( -19.50000000000000000, 1.500000000000000000, -9.500000000000000000 ) ) ;
#160 = CARTESIAN_POINT ( 'NONE',  ( -21.50000000000000000, 22.00000000000000355, -6.500000000000000888 ) ) ;
#161 = ORIENTED_EDGE ( 'NONE', *, *, #705, .F. ) ;
#162 = DIRECTION ( 'NONE',  ( -1.000000000000000000, 0.000000000000000000, 0.000000000000000000 ) ) ;
#163 = ORIENTED_EDGE ( 'NONE', *, *, #431, .T. ) ;
#164 = FACE_OUTER_BOUND ( 'NONE', #659, .T. ) ;
#165 = CARTESIAN_POINT ( 'NONE',  ( 15.43826230851009740, 30.50000000000000355, -9.500000000000000000 ) ) ;
#166 = ORIENTED_EDGE ( 'NONE', *, *, #978, .T. ) ;
#167 = DIRECTION ( 'NONE',  ( -0.000000000000000000, -0.000000000000000000, -1.000000000000000000 ) ) ;
#168 = EDGE_LOOP ( 'NONE', ( #188, #596, #513, #747 ) ) ;
#169 = AXIS2_PLACEMENT_3D ( 'NONE', #954, #208, #856 ) ;
#170 = CYLINDRICAL_SURFACE ( 'NONE', #133, 0.5000000000000004441 ) ;
#171 = AXIS2_PLACEMENT_3D ( 'NONE', #1225, #256, #941 ) ;
#172 = ADVANCED_FACE ( 'NONE', ( #1002 ), #51, .T. ) ;
#173 = VECTOR ( 'NONE', #827, 1000.000000000000000 ) ;
#174 = CARTESIAN_POINT ( 'NONE',  ( 19.50000000000000000, 30.50000000000000355, -9.500000000000000000 ) ) ;
#175 = ORIENTED_EDGE ( 'NONE', *, *, #152, .T. ) ;
#176 = DIRECTION ( 'NONE',  ( 0.000000000000000000, 0.000000000000000000, 1.000000000000000000 ) ) ;
#177 = EDGE_LOOP ( 'NONE', ( #111, #73, #129, #383 ) ) ;
#178 = DIRECTION ( 'NONE',  ( 1.000000000000000000, -0.000000000000000000, 0.000000000000000000 ) ) ;
#179 = DIRECTION ( 'NONE',  ( 1.000000000000000000, 0.000000000000000000, -1.224646799147352714E-16 ) ) ;
#180 = EDGE_LOOP ( 'NONE', ( #969, #281, #1149, #298 ) ) ;
#181 = CARTESIAN_POINT ( 'NONE',  ( -18.50000000000000000, 32.50000000000000000, 0.000000000000000000 ) ) ;
#182 = ORIENTED_EDGE ( 'NONE', *, *, #580, .T. ) ;
#183 = EDGE_CURVE ( 'NONE', #458, #408, #885, .T. ) ;
#184 = FACE_OUTER_BOUND ( 'NONE', #1224, .T. ) ;
#185 = CARTESIAN_POINT ( 'NONE',  ( 17.99999999999999645, 29.00000000000000000, 2.999999999999995559 ) ) ;
#186 = ORIENTED_EDGE ( 'NONE', *, *, #431, .F. ) ;
#187 = PLANE ( 'NONE',  #336 ) ;
#188 = ORIENTED_EDGE ( 'NONE', *, *, #56, .F. ) ;
#189 = CARTESIAN_POINT ( 'NONE',  ( -19.50000000000000000, 22.00000000000000711, -9.500000000000000000 ) ) ;
#190 = EDGE_CURVE ( 'NONE', #1146, #1012, #518, .T. ) ;
#191 = AXIS2_PLACEMENT_3D ( 'NONE', #1019, #270, #253 ) ;
#192 =( GEOMETRIC_REPRESENTATION_CONTEXT ( 3 ) GLOBAL_UNCERTAINTY_ASSIGNED_CONTEXT ( ( #951 ) ) GLOBAL_UNIT_ASSIGNED_CONTEXT ( ( #127, #1180, #230 ) ) REPRESENTATION_CONTEXT ( 'NONE', 'WORKASPACE' ) );
#193 = DIRECTION ( 'NONE',  ( 1.000000000000000000, 0.000000000000000000, 3.016910393003146803E-16 ) ) ;
#194 = AXIS2_PLACEMENT_3D ( 'NONE', #829, #1213, #964 ) ;
#195 = VECTOR ( 'NONE', #1082, 1000.000000000000000 ) ;
#196 = ORIENTED_EDGE ( 'NONE', *, *, #806, .F. ) ;
#197 = DIRECTION ( 'NONE',  ( 1.000000000000000000, 0.000000000000000000, 0.000000000000000000 ) ) ;
#198 = EDGE_LOOP ( 'NONE', ( #996 ) ) ;
#199 = EDGE_LOOP ( 'NONE', ( #117, #1031, #739, #109 ) ) ;
#200 = ADVANCED_FACE ( 'NONE', ( #334 ), #40, .F. ) ;
#201 = CARTESIAN_POINT ( 'NONE',  ( 18.81818181818181657, 26.90403279787190627, -3.569645326429307085E-15 ) ) ;
#202 = CARTESIAN_POINT ( 'NONE',  ( -17.49999999999999645, 8.500000000000000000, -9.499999999999996447 ) ) ;
#203 = EDGE_CURVE ( 'NONE', #385, #726, #824, .T. ) ;
#204 = ORIENTED_EDGE ( 'NONE', *, *, #854, .F. ) ;
#205 = CARTESIAN_POINT ( 'NONE',  ( 0.000000000000000000, 13.99999999999999467, -9.500000000000000000 ) ) ;
#206 = ORIENTED_EDGE ( 'NONE', *, *, #1021, .T. ) ;
#207 = VERTEX_POINT ( 'NONE', #1014 ) ;
#208 = DIRECTION ( 'NONE',  ( -0.000000000000000000, -0.000000000000000000, -1.000000000000000000 ) ) ;
#209 = LINE ( 'NONE', #850, #15 ) ;
#210 = EDGE_LOOP ( 'NONE', ( #265, #744, #1054, #341 ) ) ;
#211 = CARTESIAN_POINT ( 'NONE',  ( 18.94999999999999574, 29.00000000000000000, -9.499999999999996447 ) ) ;
#212 = ADVANCED_FACE ( 'NONE', ( #1103 ), #1116, .T. ) ;
#213 = ORIENTED_EDGE ( 'NONE', *, *, #306, .F. ) ;
#214 = EDGE_LOOP ( 'NONE', ( #646 ) ) ;
#215 = CARTESIAN_POINT ( 'NONE',  ( 2.549591630525155963E-31, 1.500000000000000000, -2.081899558550499885E-15 ) ) ;
#216 = DIRECTION ( 'NONE',  ( -0.000000000000000000, 0.000000000000000000, -1.000000000000000000 ) ) ;
#217 = CIRCLE ( 'NONE', #1174, 0.5000000000000004441 ) ;
#218 = VECTOR ( 'NONE', #316, 1000.000000000000000 ) ;
#219 = CARTESIAN_POINT ( 'NONE',  ( 17.00000000000000000, 1.500000000000000000, -6.499999999999997335 ) ) ;
#220 = CARTESIAN_POINT ( 'NONE',  ( 18.94999999999999574, 29.00000000000000000, 2.422649730810355617 ) ) ;
#221 = EDGE_LOOP ( 'NONE', ( #789, #1128, #163, #115, #949, #1017 ) ) ;
#222 = CIRCLE ( 'NONE', #792, 0.5000000000000004441 ) ;
#223 = DIRECTION ( 'NONE',  ( -1.224646799147352714E-16, 0.000000000000000000, -1.000000000000000000 ) ) ;
#224 = CYLINDRICAL_SURFACE ( 'NONE', #1148, 0.9499999999999995115 ) ;
#225 = DIRECTION ( 'NONE',  ( -1.000000000000000000, 0.000000000000000000, 0.000000000000000000 ) ) ;
#226 =( NAMED_UNIT ( * ) PLANE_ANGLE_UNIT ( ) SI_UNIT ( $, .RADIAN. ) );
#227 = VERTEX_POINT ( 'NONE', #362 ) ;
#228 = LINE ( 'NONE', #698, #972 ) ;
#229 = DIRECTION ( 'NONE',  ( 1.224646799147352714E-16, -0.000000000000000000, 1.000000000000000000 ) ) ;
#230 =( NAMED_UNIT ( * ) SI_UNIT ( $, .STERADIAN. ) SOLID_ANGLE_UNIT ( ) );
#231 = LINE ( 'NONE', #788, #517 ) ;
#232 = ORIENTED_EDGE ( 'NONE', *, *, #797, .F. ) ;
#233 = CARTESIAN_POINT ( 'NONE',  ( 21.50000000000000000, 0.000000000000000000, -11.50000000000000000 ) ) ;
#234 = EDGE_CURVE ( 'NONE', #805, #701, #1188, .T. ) ;
#235 = VECTOR ( 'NONE', #837, 1000.000000000000000 ) ;
#236 = AXIS2_PLACEMENT_3D ( 'NONE', #625, #727, #1105 ) ;
#237 = PLANE ( 'NONE',  #1170 ) ;
#238 = VERTEX_POINT ( 'NONE', #546 ) ;
#239 = LINE ( 'NONE', #599, #840 ) ;
#240 = LINE ( 'NONE', #141, #890 ) ;
#241 = EDGE_CURVE ( 'NONE', #458, #1133, #693, .T. ) ;
#242 = UNCERTAINTY_MEASURE_WITH_UNIT (LENGTH_MEASURE( 1.000000000000000082E-05 ), #970, 'distance_accuracy_value', 'NONE');
#243 = CARTESIAN_POINT ( 'NONE',  ( 15.43826230851009740, 30.50000000000000355, -0.000000000000000000 ) ) ;
#244 = FACE_OUTER_BOUND ( 'NONE', #991, .T. ) ;
#245 = EDGE_CURVE ( 'NONE', #96, #759, #264, .T. ) ;
#246 = CARTESIAN_POINT ( 'NONE',  ( 15.43826230851009740, 30.00000000000000355, 12.36396103067892938 ) ) ;
#247 = CARTESIAN_POINT ( 'NONE',  ( -21.50000000000000000, 29.50000000000000355, -11.50000000000000000 ) ) ;
#248 = EDGE_CURVE ( 'NONE', #834, #385, #478, .T. ) ;
#249 = AXIS2_PLACEMENT_3D ( 'NONE', #902, #229, #328 ) ;
#250 = VECTOR ( 'NONE', #785, 1000.000000000000000 ) ;
#251 = EDGE_LOOP ( 'NONE', ( #455, #206, #59, #940 ) ) ;
#252 = VECTOR ( 'NONE', #892, 1000.000000000000000 ) ;
#253 = DIRECTION ( 'NONE',  ( -1.000000000000000000, 0.000000000000000000, 0.000000000000000000 ) ) ;
#254 = CARTESIAN_POINT ( 'NONE',  ( 0.000000000000000000, 30.50000000000000355, 0.000000000000000000 ) ) ;
#255 = ORIENTED_EDGE ( 'NONE', *, *, #1195, .F. ) ;
#256 = DIRECTION ( 'NONE',  ( -1.000000000000000000, 0.000000000000000000, 0.000000000000000000 ) ) ;
#257 = ORIENTED_EDGE ( 'NONE', *, *, #956, .F. ) ;
#258 = DIRECTION ( 'NONE',  ( 1.000000000000000000, -1.387778780781444413E-14, -1.224646799147349509E-16 ) ) ;
#259 = DIRECTION ( 'NONE',  ( -0.000000000000000000, -1.000000000000000000, -0.000000000000000000 ) ) ;
#260 = ORIENTED_EDGE ( 'NONE', *, *, #626, .F. ) ;
#261 = LINE ( 'NONE', #634, #1091 ) ;
#262 = ORIENTED_EDGE ( 'NONE', *, *, #854, .T. ) ;
#263 = CYLINDRICAL_SURFACE ( 'NONE', #947, 0.5000000000000004441 ) ;
#264 = LINE ( 'NONE', #449, #173 ) ;
#265 = ORIENTED_EDGE ( 'NONE', *, *, #910, .F. ) ;
#266 = FACE_OUTER_BOUND ( 'NONE', #352, .T. ) ;
#267 = AXIS2_PLACEMENT_3D ( 'NONE', #125, #330, #1172 ) ;
#268 = ORIENTED_EDGE ( 'NONE', *, *, #462, .T. ) ;
#269 = AXIS2_PLACEMENT_3D ( 'NONE', #156, #1073, #1084 ) ;
#270 = DIRECTION ( 'NONE',  ( 0.000000000000000000, 0.000000000000000000, -1.000000000000000000 ) ) ;
#271 = CARTESIAN_POINT ( 'NONE',  ( -19.00000000000000000, 30.00000000000000355, 2.449293598294704935E-16 ) ) ;
#272 = EDGE_LOOP ( 'NONE', ( #502, #268, #42, #816, #1152, #1052, #786, #204, #6, #728 ) ) ;
#273 = EDGE_CURVE ( 'NONE', #30, #30, #151, .T. ) ;
#274 = LINE ( 'NONE', #1125, #1027 ) ;
#275 = ORIENTED_EDGE ( 'NONE', *, *, #248, .F. ) ;
#276 = DIRECTION ( 'NONE',  ( -0.000000000000000000, -0.000000000000000000, -1.000000000000000000 ) ) ;
#277 = FACE_OUTER_BOUND ( 'NONE', #916, .T. ) ;
#278 = VERTEX_POINT ( 'NONE', #247 ) ;
#279 = DIRECTION ( 'NONE',  ( 0.000000000000000000, 0.000000000000000000, 1.000000000000000000 ) ) ;
#280 = EDGE_CURVE ( 'NONE', #278, #1066, #1204, .T. ) ;
#281 = ORIENTED_EDGE ( 'NONE', *, *, #995, .F. ) ;
#282 = LINE ( 'NONE', #848, #235 ) ;
#283 = DIRECTION ( 'NONE',  ( -3.016910393003144338E-16, 0.000000000000000000, 1.000000000000000000 ) ) ;
#284 = ORIENTED_EDGE ( 'NONE', *, *, #635, .T. ) ;
#285 = VERTEX_POINT ( 'NONE', #501 ) ;
#286 = EDGE_CURVE ( 'NONE', #887, #688, #535, .T. ) ;
#287 = ORIENTED_EDGE ( 'NONE', *, *, #124, .F. ) ;
#288 = ORIENTED_EDGE ( 'NONE', *, *, #580, .F. ) ;
#289 = LINE ( 'NONE', #2, #291 ) ;
#290 = ADVANCED_FACE ( 'NONE', ( #639 ), #457, .T. ) ;
#291 = VECTOR ( 'NONE', #755, 1000.000000000000000 ) ;
#292 = DIRECTION ( 'NONE',  ( -0.000000000000000000, 1.826024711554533913E-16, 1.000000000000000000 ) ) ;
#293 = AXIS2_PLACEMENT_3D ( 'NONE', #588, #781, #102 ) ;
#294 = VECTOR ( 'NONE', #1135, 1000.000000000000000 ) ;
#295 = LINE ( 'NONE', #1049, #1048 ) ;
#296 = CARTESIAN_POINT ( 'NONE',  ( -19.00000000000000000, 30.00000000000000355, -9.500000000000000000 ) ) ;
#297 = VERTEX_POINT ( 'NONE', #165 ) ;
#298 = ORIENTED_EDGE ( 'NONE', *, *, #630, .F. ) ;
#299 = PLANE ( 'NONE',  #767 ) ;
#300 = CARTESIAN_POINT ( 'NONE',  ( -19.00000000000000000, 30.50000000000000355, -9.500000000000000000 ) ) ;
#301 = PRODUCT_RELATED_PRODUCT_CATEGORY ( 'part', '', ( #346 ) ) ;
#302 = ORIENTED_EDGE ( 'NONE', *, *, #578, .F. ) ;
#303 = LINE ( 'NONE', #775, #530 ) ;
#304 = ORIENTED_EDGE ( 'NONE', *, *, #1216, .T. ) ;
#305 = CARTESIAN_POINT ( 'NONE',  ( -19.49999999999999645, 25.00000000000000000, -6.500000000000000888 ) ) ;
#306 = EDGE_CURVE ( 'NONE', #1063, #1066, #560, .T. ) ;
#307 = DIRECTION ( 'NONE',  ( -1.000000000000000000, 0.000000000000000000, 0.000000000000000000 ) ) ;
#308 = ORIENTED_EDGE ( 'NONE', *, *, #862, .F. ) ;
#309 = DIRECTION ( 'NONE',  ( -1.000000000000000000, 0.000000000000000000, 0.000000000000000000 ) ) ;
#310 = ORIENTED_EDGE ( 'NONE', *, *, #377, .T. ) ;
#311 = LINE ( 'NONE', #915, #434 ) ;
#312 = PLANE ( 'NONE',  #249 ) ;
#313 = AXIS2_PLACEMENT_3D ( 'NONE', #515, #997, #39 ) ;
#314 = AXIS2_PLACEMENT_3D ( 'NONE', #590, #1198, #37 ) ;
#315 = ORIENTED_EDGE ( 'NONE', *, *, #1034, .T. ) ;
#316 = DIRECTION ( 'NONE',  ( 1.000000000000000000, -0.000000000000000000, -0.000000000000000000 ) ) ;
#317 = AXIS2_PLACEMENT_3D ( 'NONE', #756, #579, #974 ) ;
#318 = ADVANCED_FACE ( 'NONE', ( #813, #1211 ), #804, .F. ) ;
#319 = AXIS2_PLACEMENT_3D ( 'NONE', #497, #565, #871 ) ;
#320 = FACE_OUTER_BOUND ( 'NONE', #614, .T. ) ;
#321 = VERTEX_POINT ( 'NONE', #622 ) ;
#322 = CARTESIAN_POINT ( 'NONE',  ( 18.49999999999999645, 29.50000000000000355, -4.347496136973101704E-15 ) ) ;
#323 = DIRECTION ( 'NONE',  ( -1.000000000000000000, 0.000000000000000000, 0.000000000000000000 ) ) ;
#324 = EDGE_CURVE ( 'NONE', #679, #207, #1008, .T. ) ;
#325 = ADVANCED_FACE ( 'NONE', ( #1217 ), #367, .F. ) ;
#326 = DIRECTION ( 'NONE',  ( -1.000000000000000000, 0.000000000000000000, 0.000000000000000000 ) ) ;
#327 = VERTEX_POINT ( 'NONE', #939 ) ;
#328 = DIRECTION ( 'NONE',  ( 1.000000000000000000, 0.000000000000000000, -1.224646799147352714E-16 ) ) ;
#329 = DIRECTION ( 'NONE',  ( 0.000000000000000000, 0.000000000000000000, 1.000000000000000000 ) ) ;
#330 = DIRECTION ( 'NONE',  ( 1.224646799147352714E-16, -0.000000000000000000, 1.000000000000000000 ) ) ;
#331 = EDGE_LOOP ( 'NONE', ( #483 ) ) ;
#332 = ADVANCED_FACE ( 'NONE', ( #470, #1222 ), #155, .T. ) ;
#333 = DIRECTION ( 'NONE',  ( 1.000000000000000000, 0.000000000000000000, 0.000000000000000000 ) ) ;
#334 = FACE_OUTER_BOUND ( 'NONE', #682, .T. ) ;
#335 = PRODUCT_DEFINITION_FORMATION_WITH_SPECIFIED_SOURCE ( 'ANY', '', #346, .NOT_KNOWN. ) ;
#336 = AXIS2_PLACEMENT_3D ( 'NONE', #562, #1042, #835 ) ;
#337 = AXIS2_PLACEMENT_3D ( 'NONE', #347, #77, #833 ) ;
#338 = DIRECTION ( 'NONE',  ( 1.000000000000000000, 0.000000000000000000, 0.000000000000000000 ) ) ;
#339 = DIRECTION ( 'NONE',  ( 0.000000000000000000, 0.000000000000000000, -1.000000000000000000 ) ) ;
#340 = ADVANCED_FACE ( 'NONE', ( #277 ), #1046, .T. ) ;
#341 = ORIENTED_EDGE ( 'NONE', *, *, #98, .T. ) ;
#342 = CARTESIAN_POINT ( 'NONE',  ( -19.50000000000000000, 10.80488611432322799, 3.061616997868379197E-16 ) ) ;
#343 = CARTESIAN_POINT ( 'NONE',  ( -17.00000000000000000, 1.500000000000000000, 0.000000000000000000 ) ) ;
#344 = ORIENTED_EDGE ( 'NONE', *, *, #56, .T. ) ;
#345 = DIRECTION ( 'NONE',  ( -1.000000000000000000, -0.000000000000000000, -0.000000000000000000 ) ) ;
#346 = PRODUCT ( 'Shell Left', 'Shell Left', '', ( #810 ) ) ;
#347 = CARTESIAN_POINT ( 'NONE',  ( 15.43826230851009740, 30.00000000000000355, -3.469446951953614189E-15 ) ) ;
#348 = VERTEX_POINT ( 'NONE', #763 ) ;
#349 = DIRECTION ( 'NONE',  ( 0.000000000000000000, 0.000000000000000000, -1.000000000000000000 ) ) ;
#350 = AXIS2_PLACEMENT_3D ( 'NONE', #137, #1081, #1183 ) ;
#351 = VECTOR ( 'NONE', #1231, 1000.000000000000000 ) ;
#352 = EDGE_LOOP ( 'NONE', ( #542, #75, #561, #1139 ) ) ;
#353 = AXIS2_PLACEMENT_3D ( 'NONE', #71, #1098, #918 ) ;
#354 = EDGE_CURVE ( 'NONE', #601, #601, #694, .T. ) ;
#355 = LINE ( 'NONE', #826, #869 ) ;
#356 = DIRECTION ( 'NONE',  ( -0.000000000000000000, -1.000000000000000000, -0.000000000000000000 ) ) ;
#357 = ORIENTED_EDGE ( 'NONE', *, *, #705, .T. ) ;
#358 = DIRECTION ( 'NONE',  ( 0.000000000000000000, 0.000000000000000000, 1.000000000000000000 ) ) ;
#359 = ORIENTED_EDGE ( 'NONE', *, *, #626, .T. ) ;
#360 = EDGE_CURVE ( 'NONE', #759, #1035, #3, .T. ) ;
#361 = LINE ( 'NONE', #1114, #819 ) ;
#362 = CARTESIAN_POINT ( 'NONE',  ( -18.72727272727272663, 6.614184088281001905, -9.499999999999996447 ) ) ;
#363 = ORIENTED_EDGE ( 'NONE', *, *, #1199, .T. ) ;
#364 = FACE_OUTER_BOUND ( 'NONE', #65, .T. ) ;
#365 = ORIENTED_EDGE ( 'NONE', *, *, #152, .F. ) ;
#366 = LINE ( 'NONE', #1190, #743 ) ;
#367 = CYLINDRICAL_SURFACE ( 'NONE', #628, 0.5000000000000004441 ) ;
#368 = EDGE_LOOP ( 'NONE', ( #570 ) ) ;
#369 = CARTESIAN_POINT ( 'NONE',  ( 15.90403279787189916, 29.81818181818182012, -9.500000000000000000 ) ) ;
#370 = ORIENTED_EDGE ( 'NONE', *, *, #273, .T. ) ;
#371 = CIRCLE ( 'NONE', #194, 0.5000000000000004441 ) ;
#372 = MECHANICAL_DESIGN_GEOMETRIC_PRESENTATION_REPRESENTATION (  '', ( #610 ), #192 ) ;
#373 = DIRECTION ( 'NONE',  ( -1.000000000000000000, 0.000000000000000000, 1.224646799147352714E-16 ) ) ;
#374 = ADVANCED_FACE ( 'NONE', ( #778 ), #572, .T. ) ;
#375 = AXIS2_PLACEMENT_3D ( 'NONE', #721, #405, #388 ) ;
#376 = CARTESIAN_POINT ( 'NONE',  ( -21.50000000000000000, 0.000000000000000000, -0.000000000000000000 ) ) ;
#377 = EDGE_CURVE ( 'NONE', #1165, #1165, #1171, .T. ) ;
#378 = ORIENTED_EDGE ( 'NONE', *, *, #280, .T. ) ;
#379 = LINE ( 'NONE', #920, #821 ) ;
#380 = EDGE_LOOP ( 'NONE', ( #150 ) ) ;
#381 = FACE_OUTER_BOUND ( 'NONE', #1155, .T. ) ;
#382 = FACE_BOUND ( 'NONE', #852, .T. ) ;
#383 = ORIENTED_EDGE ( 'NONE', *, *, #995, .T. ) ;
#384 = CARTESIAN_POINT ( 'NONE',  ( -16.50000000000000000, 0.000000000000000000, -6.999999999999997335 ) ) ;
#385 = VERTEX_POINT ( 'NONE', #396 ) ;
#386 = ORIENTED_EDGE ( 'NONE', *, *, #1209, .T. ) ;
#387 = DIRECTION ( 'NONE',  ( -0.000000000000000000, -0.000000000000000000, -1.000000000000000000 ) ) ;
#388 = DIRECTION ( 'NONE',  ( -1.000000000000000000, 0.000000000000000000, 0.000000000000000000 ) ) ;
#389 = FILL_AREA_STYLE ('',( #4 ) ) ;
#390 = CARTESIAN_POINT ( 'NONE',  ( 16.50000000000000000, 1.500000000000000000, -6.999999999999997335 ) ) ;
#391 = ORIENTED_EDGE ( 'NONE', *, *, #462, .F. ) ;
#392 = ORIENTED_EDGE ( 'NONE', *, *, #740, .T. ) ;
#393 = DIRECTION ( 'NONE',  ( 0.000000000000000000, 0.000000000000000000, 1.000000000000000000 ) ) ;
#394 = AXIS2_PLACEMENT_3D ( 'NONE', #490, #387, #864 ) ;
#395 = VECTOR ( 'NONE', #616, 1000.000000000000000 ) ;
#396 = CARTESIAN_POINT ( 'NONE',  ( -18.72727272727272663, 10.38581591171899987, 1.502975617135389988E-16 ) ) ;
#397 = AXIS2_PLACEMENT_3D ( 'NONE', #1162, #798, #1181 ) ;
#398 = AXIS2_PLACEMENT_3D ( 'NONE', #83, #1020, #179 ) ;
#399 = CARTESIAN_POINT ( 'NONE',  ( -17.00000000000000000, 1.500000000000000000, 0.000000000000000000 ) ) ;
#400 = DIRECTION ( 'NONE',  ( -0.000000000000000000, -1.000000000000000000, -0.000000000000000000 ) ) ;
#401 = ORIENTED_EDGE ( 'NONE', *, *, #978, .F. ) ;
#402 = EDGE_CURVE ( 'NONE', #928, #1227, #586, .T. ) ;
#403 = ORIENTED_EDGE ( 'NONE', *, *, #20, .F. ) ;
#404 = DIRECTION ( 'NONE',  ( 1.000000000000000000, 0.000000000000000000, 0.000000000000000000 ) ) ;
#405 = DIRECTION ( 'NONE',  ( -0.000000000000000000, -0.000000000000000000, -1.000000000000000000 ) ) ;
#406 = VERTEX_POINT ( 'NONE', #300 ) ;
#407 = CARTESIAN_POINT ( 'NONE',  ( 17.00000000000000000, 1.500000000000000000, 0.000000000000000000 ) ) ;
#408 = VERTEX_POINT ( 'NONE', #22 ) ;
#409 = DIRECTION ( 'NONE',  ( 1.000000000000000000, -0.000000000000000000, -0.000000000000000000 ) ) ;
#410 = FACE_OUTER_BOUND ( 'NONE', #272, .T. ) ;
#411 = EDGE_CURVE ( 'NONE', #811, #887, #209, .T. ) ;
#412 = LINE ( 'NONE', #399, #11 ) ;
#413 = LINE ( 'NONE', #205, #218 ) ;
#414 = VERTEX_POINT ( 'NONE', #1062 ) ;
#415 = DIRECTION ( 'NONE',  ( -1.000000000000000000, -0.000000000000000000, -0.000000000000000000 ) ) ;
#416 = CARTESIAN_POINT ( 'NONE',  ( 18.50000000000000000, 32.50000000000000000, -11.50000000000000178 ) ) ;
#417 = ADVANCED_FACE ( 'NONE', ( #113 ), #773, .T. ) ;
#418 = VECTOR ( 'NONE', #880, 1000.000000000000000 ) ;
#419 = CIRCLE ( 'NONE', #46, 0.5000000000000004441 ) ;
#420 = VECTOR ( 'NONE', #524, 1000.000000000000000 ) ;
#421 = DIRECTION ( 'NONE',  ( 0.000000000000000000, -1.000000000000000000, 0.000000000000000000 ) ) ;
#422 = CARTESIAN_POINT ( 'NONE',  ( -16.54999999999999716, 8.500000000000000000, -9.499999999999996447 ) ) ;
#423 = VECTOR ( 'NONE', #1157, 1000.000000000000000 ) ;
#424 = ADVANCED_FACE ( 'NONE', ( #1229, #382 ), #93, .F. ) ;
#425 = CARTESIAN_POINT ( 'NONE',  ( 15.90403279787189916, 29.81818181818182012, 12.36396103067892938 ) ) ;
#426 = DIRECTION ( 'NONE',  ( -0.000000000000000000, -0.000000000000000000, -1.000000000000000000 ) ) ;
#427 = DIRECTION ( 'NONE',  ( 1.000000000000000000, 0.000000000000000000, 1.224646799147352714E-16 ) ) ;
#428 = EDGE_CURVE ( 'NONE', #1119, #1012, #99, .T. ) ;
#429 = PLANE ( 'NONE',  #397 ) ;
#430 = CYLINDRICAL_SURFACE ( 'NONE', #88, 0.5000000000000004441 ) ;
#431 = EDGE_CURVE ( 'NONE', #981, #558, #18, .T. ) ;
#432 = DIRECTION ( 'NONE',  ( 1.000000000000000000, 0.000000000000000000, -1.224646799147352714E-16 ) ) ;
#433 = LINE ( 'NONE', #803, #395 ) ;
#434 = VECTOR ( 'NONE', #989, 1000.000000000000000 ) ;
#435 = VECTOR ( 'NONE', #400, 1000.000000000000000 ) ;
#436 = EDGE_CURVE ( 'NONE', #928, #1193, #1126, .T. ) ;
#437 = VECTOR ( 'NONE', #858, 1000.000000000000000 ) ;
#438 = ORIENTED_EDGE ( 'NONE', *, *, #857, .F. ) ;
#439 = CARTESIAN_POINT ( 'NONE',  ( 15.43826230851009740, 30.50000000000000355, 0.000000000000000000 ) ) ;
#440 = CARTESIAN_POINT ( 'NONE',  ( -19.50000000000000000, 30.50000000000000355, -9.500000000000000000 ) ) ;
#441 = ORIENTED_EDGE ( 'NONE', *, *, #28, .F. ) ;
#442 = DIRECTION ( 'NONE',  ( -0.000000000000000000, 0.000000000000000000, -1.000000000000000000 ) ) ;
#443 = DIRECTION ( 'NONE',  ( -1.224646799147352714E-16, 0.000000000000000000, -1.000000000000000000 ) ) ;
#444 = ORIENTED_EDGE ( 'NONE', *, *, #665, .T. ) ;
#445 = LINE ( 'NONE', #1089, #1145 ) ;
#446 = VERTEX_POINT ( 'NONE', #962 ) ;
#447 = FACE_OUTER_BOUND ( 'NONE', #180, .T. ) ;
#448 = EDGE_CURVE ( 'NONE', #934, #928, #106, .T. ) ;
#449 = CARTESIAN_POINT ( 'NONE',  ( -19.50000000000000000, 30.50000000000000355, -9.500000000000000000 ) ) ;
#450 = ORIENTED_EDGE ( 'NONE', *, *, #982, .T. ) ;
#451 = CARTESIAN_POINT ( 'NONE',  ( -21.50000000000000000, 0.000000000000000000, 2.449293598294703949E-16 ) ) ;
#452 = EDGE_CURVE ( 'NONE', #846, #278, #684, .T. ) ;
#453 = CIRCLE ( 'NONE', #66, 2.250000000000000444 ) ;
#454 = AXIS2_PLACEMENT_3D ( 'NONE', #132, #339, #225 ) ;
#455 = ORIENTED_EDGE ( 'NONE', *, *, #245, .F. ) ;
#456 = DIRECTION ( 'NONE',  ( -0.000000000000000000, -0.000000000000000000, -1.000000000000000000 ) ) ;
#457 = PLANE ( 'NONE',  #398 ) ;
#458 = VERTEX_POINT ( 'NONE', #592 ) ;
#459 = CYLINDRICAL_SURFACE ( 'NONE', #476, 3.000000000000000000 ) ;
#460 = PRODUCT_DEFINITION_SHAPE ( 'NONE', 'NONE',  #1141 ) ;
#461 = ORIENTED_EDGE ( 'NONE', *, *, #436, .T. ) ;
#462 = EDGE_CURVE ( 'NONE', #321, #834, #222, .T. ) ;
#463 = CARTESIAN_POINT ( 'NONE',  ( 0.000000000000000000, 1.500000000000000000, -6.999999999999997335 ) ) ;
#464 = DIRECTION ( 'NONE',  ( 0.000000000000000000, -0.000000000000000000, -1.000000000000000000 ) ) ;
#465 = ORIENTED_EDGE ( 'NONE', *, *, #1166, .F. ) ;
#466 = LINE ( 'NONE', #929, #668 ) ;
#467 = ORIENTED_EDGE ( 'NONE', *, *, #1021, .F. ) ;
#468 = CARTESIAN_POINT ( 'NONE',  ( -19.00000000000000000, 10.80488611432322266, -9.499999999999996447 ) ) ;
#469 = EDGE_CURVE ( 'NONE', #768, #805, #750, .T. ) ;
#470 = FACE_OUTER_BOUND ( 'NONE', #1161, .T. ) ;
#471 = ORIENTED_EDGE ( 'NONE', *, *, #1003, .F. ) ;
#472 = CARTESIAN_POINT ( 'NONE',  ( 0.000000000000000000, 32.50000000000000000, 0.000000000000000000 ) ) ;
#473 = CIRCLE ( 'NONE', #1121, 0.9499999999999995115 ) ;
#474 = ORIENTED_EDGE ( 'NONE', *, *, #1127, .F. ) ;
#475 = EDGE_CURVE ( 'NONE', #1065, #1038, #692, .T. ) ;
#476 = AXIS2_PLACEMENT_3D ( 'NONE', #482, #1207, #176 ) ;
#477 = CARTESIAN_POINT ( 'NONE',  ( -17.49999999999999645, 8.500000000000000000, 2.999999999999999112 ) ) ;
#478 = CIRCLE ( 'NONE', #670, 2.250000000000000444 ) ;
#479 = AXIS2_PLACEMENT_3D ( 'NONE', #468, #17, #404 ) ;
#480 = DIRECTION ( 'NONE',  ( 0.000000000000000000, 1.000000000000000000, -0.000000000000000000 ) ) ;
#481 = ORIENTED_EDGE ( 'NONE', *, *, #41, .T. ) ;
#482 = CARTESIAN_POINT ( 'NONE',  ( -19.49999999999999645, 13.99999999999999645, -6.500000000000000888 ) ) ;
#483 = ORIENTED_EDGE ( 'NONE', *, *, #354, .F. ) ;
#484 = FACE_OUTER_BOUND ( 'NONE', #177, .T. ) ;
#485 = CARTESIAN_POINT ( 'NONE',  ( 21.49999999999999645, 1.500000000000000000, -4.714892376317814179E-15 ) ) ;
#486 = DIRECTION ( 'NONE',  ( 0.000000000000000000, 0.000000000000000000, 1.000000000000000000 ) ) ;
#487 = DIRECTION ( 'NONE',  ( 0.000000000000000000, 0.000000000000000000, -1.000000000000000000 ) ) ;
#488 = ORIENTED_EDGE ( 'NONE', *, *, #541, .F. ) ;
#489 = VERTEX_POINT ( 'NONE', #783 ) ;
#490 = CARTESIAN_POINT ( 'NONE',  ( 17.99999999999999645, 29.00000000000000000, 12.36396103067892938 ) ) ;
#491 = DIRECTION ( 'NONE',  ( -0.000000000000000000, 0.000000000000000000, -1.000000000000000000 ) ) ;
#492 = ADVANCED_FACE ( 'NONE', ( #898, #604 ), #224, .F. ) ;
#493 = ORIENTED_EDGE ( 'NONE', *, *, #183, .F. ) ;
#494 = DIRECTION ( 'NONE',  ( -3.016910393003144338E-16, -0.000000000000000000, 1.000000000000000000 ) ) ;
#495 = ORIENTED_EDGE ( 'NONE', *, *, #469, .F. ) ;
#496 = EDGE_LOOP ( 'NONE', ( #302, #882, #378, #213, #914, #1106, #461, #401, #648, #7 ) ) ;
#497 = CARTESIAN_POINT ( 'NONE',  ( -18.50000000000000000, 29.50000000000000355, 1.836970198721025743E-16 ) ) ;
#498 = AXIS2_PLACEMENT_3D ( 'NONE', #796, #421, #800 ) ;
#499 = DIRECTION ( 'NONE',  ( 0.000000000000000000, 1.156482317317871331E-15, 1.000000000000000000 ) ) ;
#500 = EDGE_LOOP ( 'NONE', ( #370 ) ) ;
#501 = CARTESIAN_POINT ( 'NONE',  ( -16.54999999999999716, 8.500000000000000000, 2.422649730810365831 ) ) ;
#502 = ORIENTED_EDGE ( 'NONE', *, *, #1147, .F. ) ;
#503 = PLANE ( 'NONE',  #1007 ) ;
#504 = CARTESIAN_POINT ( 'NONE',  ( -19.00000000000000000, 6.195113885676779120, 0.000000000000000000 ) ) ;
#505 = CARTESIAN_POINT ( 'NONE',  ( -17.00000000000000000, 0.000000000000000000, 0.000000000000000000 ) ) ;
#506 = ORIENTED_EDGE ( 'NONE', *, *, #771, .T. ) ;
#507 = EDGE_CURVE ( 'NONE', #667, #227, #1203, .T. ) ;
#508 = DIRECTION ( 'NONE',  ( 1.000000000000000000, 0.000000000000000000, 0.000000000000000000 ) ) ;
#509 = ORIENTED_EDGE ( 'NONE', *, *, #1195, .T. ) ;
#510 = DIRECTION ( 'NONE',  ( -1.000000000000000000, 0.000000000000000000, 0.000000000000000000 ) ) ;
#511 = DIRECTION ( 'NONE',  ( 0.000000000000000000, 0.000000000000000000, -1.000000000000000000 ) ) ;
#512 = CARTESIAN_POINT ( 'NONE',  ( -15.24999999999999822, 8.500000000000000000, 2.999999999999998668 ) ) ;
#513 = ORIENTED_EDGE ( 'NONE', *, *, #286, .T. ) ;
#514 = DIRECTION ( 'NONE',  ( 3.016910393003144338E-16, 0.000000000000000000, -1.000000000000000000 ) ) ;
#515 = CARTESIAN_POINT ( 'NONE',  ( -17.49999999999999645, 8.500000000000000000, -9.499999999999996447 ) ) ;
#516 = AXIS2_PLACEMENT_3D ( 'NONE', #1202, #807, #1108 ) ;
#517 = VECTOR ( 'NONE', #326, 1000.000000000000000 ) ;
#518 = LINE ( 'NONE', #36, #893 ) ;
#519 = EDGE_CURVE ( 'NONE', #489, #1035, #239, .T. ) ;
#520 = VECTOR ( 'NONE', #216, 1000.000000000000000 ) ;
#521 = FACE_OUTER_BOUND ( 'NONE', #168, .T. ) ;
#522 = ORIENTED_EDGE ( 'NONE', *, *, #901, .T. ) ;
#523 = DIRECTION ( 'NONE',  ( 3.016910393003144338E-16, 0.000000000000000000, -1.000000000000000000 ) ) ;
#524 = DIRECTION ( 'NONE',  ( -0.000000000000000000, -1.000000000000000000, -0.000000000000000000 ) ) ;
#525 = ORIENTED_EDGE ( 'NONE', *, *, #533, .F. ) ;
#526 = DIRECTION ( 'NONE',  ( 0.000000000000000000, -0.000000000000000000, 1.000000000000000000 ) ) ;
#527 = DIRECTION ( 'NONE',  ( 1.000000000000000000, 0.000000000000000000, 0.000000000000000000 ) ) ;
#528 = FACE_OUTER_BOUND ( 'NONE', #1173, .T. ) ;
#529 = CIRCLE ( 'NONE', #925, 3.000000000000000888 ) ;
#530 = VECTOR ( 'NONE', #494, 1000.000000000000000 ) ;
#531 = AXIS2_PLACEMENT_3D ( 'NONE', #913, #818, #55 ) ;
#532 = VERTEX_POINT ( 'NONE', #984 ) ;
#533 = EDGE_CURVE ( 'NONE', #887, #348, #114, .T. ) ;
#534 = FACE_OUTER_BOUND ( 'NONE', #158, .T. ) ;
#535 = LINE ( 'NONE', #174, #772 ) ;
#536 = CARTESIAN_POINT ( 'NONE',  ( 17.99999999999999645, 29.00000000000000000, -3.469446951953614189E-15 ) ) ;
#537 = VERTEX_POINT ( 'NONE', #144 ) ;
#538 = ADVANCED_FACE ( 'NONE', ( #528 ), #430, .F. ) ;
#539 = FACE_OUTER_BOUND ( 'NONE', #1143, .T. ) ;
#540 = DIRECTION ( 'NONE',  ( 1.000000000000000000, -0.000000000000000000, -0.000000000000000000 ) ) ;
#541 = EDGE_CURVE ( 'NONE', #414, #768, #707, .T. ) ;
#542 = ORIENTED_EDGE ( 'NONE', *, *, #942, .F. ) ;
#543 = DIRECTION ( 'NONE',  ( 0.000000000000000000, -1.000000000000000000, -0.000000000000000000 ) ) ;
#544 = ORIENTED_EDGE ( 'NONE', *, *, #1209, .F. ) ;
#545 = DIRECTION ( 'NONE',  ( -1.000000000000000000, 0.000000000000000000, 0.000000000000000000 ) ) ;
#546 = CARTESIAN_POINT ( 'NONE',  ( 17.00000000000000000, 0.000000000000000000, -6.499999999999997335 ) ) ;
#547 = ORIENTED_EDGE ( 'NONE', *, *, #63, .T. ) ;
#548 = FACE_OUTER_BOUND ( 'NONE', #331, .T. ) ;
#549 = VECTOR ( 'NONE', #1055, 1000.000000000000000 ) ;
#550 = VECTOR ( 'NONE', #1050, 1000.000000000000000 ) ;
#551 = ORIENTED_EDGE ( 'NONE', *, *, #1127, .T. ) ;
#552 = AXIS2_PLACEMENT_3D ( 'NONE', #202, #491, #967 ) ;
#553 = DIRECTION ( 'NONE',  ( -0.000000000000000000, -1.000000000000000000, -0.000000000000000000 ) ) ;
#554 = CARTESIAN_POINT ( 'NONE',  ( -17.49999999999999645, 8.500000000000000000, 2.422649730810365831 ) ) ;
#555 = EDGE_LOOP ( 'NONE', ( #581, #751, #450, #284, #344, #870, #139, #25, #1220, #182, #814, #868, #1214, #828, #493, #1024 ) ) ;
#556 = DIRECTION ( 'NONE',  ( 1.000000000000000000, 0.000000000000000000, -0.000000000000000000 ) ) ;
#557 = ADVANCED_FACE ( 'NONE', ( #711 ), #979, .F. ) ;
#558 = VERTEX_POINT ( 'NONE', #233 ) ;
#559 = CARTESIAN_POINT ( 'NONE',  ( -21.50000000000000000, 25.00000000000000000, -6.500000000000000888 ) ) ;
#560 = LINE ( 'NONE', #376, #70 ) ;
#561 = ORIENTED_EDGE ( 'NONE', *, *, #436, .F. ) ;
#562 = CARTESIAN_POINT ( 'NONE',  ( 0.000000000000000000, 1.500000000000000000, -11.50000000000000000 ) ) ;
#563 = ADVANCED_FACE ( 'NONE', ( #1163 ), #126, .T. ) ;
#564 = EDGE_LOOP ( 'NONE', ( #776, #1015, #1167, #547 ) ) ;
#565 = DIRECTION ( 'NONE',  ( 1.224646799147352714E-16, -0.000000000000000000, 1.000000000000000000 ) ) ;
#566 = DIRECTION ( 'NONE',  ( 1.000000000000000000, 0.000000000000000000, -2.224004456380489856E-16 ) ) ;
#567 = EDGE_LOOP ( 'NONE', ( #186, #386, #662, #471 ) ) ;
#568 = FACE_OUTER_BOUND ( 'NONE', #1212, .T. ) ;
#569 = CIRCLE ( 'NONE', #787, 2.999999999999999112 ) ;
#570 = ORIENTED_EDGE ( 'NONE', *, *, #937, .T. ) ;
#571 = DIRECTION ( 'NONE',  ( 0.000000000000000000, -1.826024711554533913E-16, -1.000000000000000000 ) ) ;
#572 = PLANE ( 'NONE',  #1053 ) ;
#573 = DIRECTION ( 'NONE',  ( 1.000000000000000000, 0.000000000000000000, 0.000000000000000000 ) ) ;
#574 = PLANE ( 'NONE',  #1223 ) ;
#575 = ORIENTED_EDGE ( 'NONE', *, *, #678, .T. ) ;
#576 = ORIENTED_EDGE ( 'NONE', *, *, #1034, .F. ) ;
#577 = LINE ( 'NONE', #1134, #988 ) ;
#578 = EDGE_CURVE ( 'NONE', #846, #780, #1179, .T. ) ;
#579 = DIRECTION ( 'NONE',  ( 0.000000000000000000, -0.000000000000000000, 1.000000000000000000 ) ) ;
#580 = EDGE_CURVE ( 'NONE', #1119, #1065, #569, .T. ) ;
#581 = ORIENTED_EDGE ( 'NONE', *, *, #110, .F. ) ;
#582 = CARTESIAN_POINT ( 'NONE',  ( 19.50000000000000000, 1.500000000000000000, 0.000000000000000000 ) ) ;
#583 = ORIENTED_EDGE ( 'NONE', *, *, #100, .T. ) ;
#584 = ORIENTED_EDGE ( 'NONE', *, *, #411, .F. ) ;
#585 = LINE ( 'NONE', #966, #154 ) ;
#586 = LINE ( 'NONE', #91, #994 ) ;
#587 = CARTESIAN_POINT ( 'NONE',  ( 17.99999999999999645, 29.00000000000000000, -9.500000000000000000 ) ) ;
#588 = CARTESIAN_POINT ( 'NONE',  ( 16.50000000000000000, 1.500000000000000000, -6.499999999999997335 ) ) ;
#589 = VECTOR ( 'NONE', #131, 1000.000000000000000 ) ;
#590 = CARTESIAN_POINT ( 'NONE',  ( -17.49999999999999645, 8.500000000000000000, 3.000000000000000000 ) ) ;
#591 = PRESENTATION_LAYER_ASSIGNMENT (  '', '', ( #610 ) ) ;
#592 = CARTESIAN_POINT ( 'NONE',  ( -19.50000000000000000, 30.00000000000000355, 3.061616997868379197E-16 ) ) ;
#593 = AXIS2_PLACEMENT_3D ( 'NONE', #120, #1056, #499 ) ;
#594 = CARTESIAN_POINT ( 'NONE',  ( 18.50000000000000000, 29.50000000000000355, -11.50000000000000000 ) ) ;
#595 = CARTESIAN_POINT ( 'NONE',  ( 17.00000000000000000, 0.000000000000000000, 0.000000000000000000 ) ) ;
#596 = ORIENTED_EDGE ( 'NONE', *, *, #411, .T. ) ;
#597 = ADVANCED_FACE ( 'NONE', ( #410 ), #312, .T. ) ;
#598 = DIRECTION ( 'NONE',  ( 1.000000000000000000, 0.000000000000000000, -1.224646799147351235E-16 ) ) ;
#599 = CARTESIAN_POINT ( 'NONE',  ( -2.549591630525155963E-31, 1.500000000000000000, -2.081899558550499885E-15 ) ) ;
#600 = DIRECTION ( 'NONE',  ( 1.000000000000000000, 0.000000000000000000, 0.000000000000000000 ) ) ;
#601 = VERTEX_POINT ( 'NONE', #422 ) ;
#602 = ADVANCED_FACE ( 'NONE', ( #702, #1087 ), #608, .T. ) ;
#603 = CARTESIAN_POINT ( 'NONE',  ( 17.00000000000000000, 1.500000000000000000, 0.000000000000000000 ) ) ;
#604 = FACE_OUTER_BOUND ( 'NONE', #931, .T. ) ;
#605 = DIRECTION ( 'NONE',  ( -0.000000000000000000, -0.000000000000000000, -1.000000000000000000 ) ) ;
#606 = CARTESIAN_POINT ( 'NONE',  ( -21.50000000000000000, 10.99999999999999822, -6.500000000000000000 ) ) ;
#607 = ORIENTED_EDGE ( 'NONE', *, *, #475, .T. ) ;
#608 = PLANE ( 'NONE',  #722 ) ;
#609 = AXIS2_PLACEMENT_3D ( 'NONE', #1092, #140, #333 ) ;
#610 = STYLED_ITEM ( 'NONE', ( #1088 ), #72 ) ;
#611 = VECTOR ( 'NONE', #1118, 1000.000000000000000 ) ;
#612 = AXIS2_PLACEMENT_3D ( 'NONE', #700, #600, #511 ) ;
#613 = PLANE ( 'NONE',  #498 ) ;
#614 = EDGE_LOOP ( 'NONE', ( #1028, #1059, #438, #365 ) ) ;
#615 = CARTESIAN_POINT ( 'NONE',  ( 0.000000000000000000, 30.50000000000000355, -9.500000000000000000 ) ) ;
#616 = DIRECTION ( 'NONE',  ( -1.000000000000000000, -0.000000000000000000, -0.000000000000000000 ) ) ;
#617 = DIRECTION ( 'NONE',  ( -0.000000000000000000, -0.000000000000000000, 1.000000000000000000 ) ) ;
#618 = CARTESIAN_POINT ( 'NONE',  ( 0.000000000000000000, 22.00000000000000355, -6.500000000000000888 ) ) ;
#619 = DIRECTION ( 'NONE',  ( 0.000000000000000000, 0.000000000000000000, 1.000000000000000000 ) ) ;
#620 = PRODUCT_DEFINITION_CONTEXT ( 'detailed design', #26, 'design' ) ;
#621 = CARTESIAN_POINT ( 'NONE',  ( -19.00000000000000000, 6.195113885676779120, 12.36396103067892938 ) ) ;
#622 = CARTESIAN_POINT ( 'NONE',  ( -19.50000000000000000, 6.195113885676787113, 3.061616997868379197E-16 ) ) ;
#623 = VECTOR ( 'NONE', #153, 1000.000000000000000 ) ;
#624 = VECTOR ( 'NONE', #1178, 1000.000000000000000 ) ;
#625 = CARTESIAN_POINT ( 'NONE',  ( -17.49999999999999645, 8.500000000000000000, 2.422649730810365831 ) ) ;
#626 = EDGE_CURVE ( 'NONE', #227, #96, #217, .T. ) ;
#627 = APPLICATION_CONTEXT ( 'automotive_design' ) ;
#628 = AXIS2_PLACEMENT_3D ( 'NONE', #1009, #742, #1033 ) ;
#629 = EDGE_LOOP ( 'NONE', ( #392, #1022, #766, #1182, #575, #757, #551, #57, #1218, #957 ) ) ;
#630 = EDGE_CURVE ( 'NONE', #297, #679, #1094, .T. ) ;
#631 = FACE_OUTER_BOUND ( 'NONE', #936, .T. ) ;
#632 = DIRECTION ( 'NONE',  ( 0.000000000000000000, -1.000000000000000000, 0.000000000000000000 ) ) ;
#633 = EDGE_LOOP ( 'NONE', ( #257 ) ) ;
#634 = CARTESIAN_POINT ( 'NONE',  ( -16.50000000000000000, 0.000000000000000000, -6.999999999999997335 ) ) ;
#635 = EDGE_CURVE ( 'NONE', #761, #811, #666, .T. ) ;
#636 = ORIENTED_EDGE ( 'NONE', *, *, #469, .T. ) ;
#637 = DIRECTION ( 'NONE',  ( 0.000000000000000000, -3.469446951953613006E-15, -1.000000000000000000 ) ) ;
#638 = ADVANCED_FACE ( 'NONE', ( #164 ), #912, .F. ) ;
#639 = FACE_OUTER_BOUND ( 'NONE', #555, .T. ) ;
#640 = ORIENTED_EDGE ( 'NONE', *, *, #541, .T. ) ;
#641 = PLANE ( 'NONE',  #171 ) ;
#642 = ORIENTED_EDGE ( 'NONE', *, *, #716, .F. ) ;
#643 = CARTESIAN_POINT ( 'NONE',  ( -19.50000000000000000, 22.00000000000000355, -6.500000000000000888 ) ) ;
#644 = CARTESIAN_POINT ( 'NONE',  ( -21.50000000000000000, 1.500000000000000000, -11.50000000000000000 ) ) ;
#645 = VECTOR ( 'NONE', #938, 1000.000000000000000 ) ;
#646 = ORIENTED_EDGE ( 'NONE', *, *, #809, .F. ) ;
#647 = CARTESIAN_POINT ( 'NONE',  ( 0.000000000000000000, 30.50000000000000355, -9.500000000000000000 ) ) ;
#648 = ORIENTED_EDGE ( 'NONE', *, *, #234, .T. ) ;
#649 = DIRECTION ( 'NONE',  ( 1.000000000000000000, 0.000000000000000000, -1.927470528863120035E-16 ) ) ;
#650 = ADVANCED_FACE ( 'NONE', ( #447 ), #263, .F. ) ;
#651 = DIRECTION ( 'NONE',  ( 1.000000000000000000, 0.000000000000000000, 0.000000000000000000 ) ) ;
#652 = ORIENTED_EDGE ( 'NONE', *, *, #1003, .T. ) ;
#653 = CARTESIAN_POINT ( 'NONE',  ( -19.50000000000000000, 14.00000000000000178, -9.500000000000000000 ) ) ;
#654 = ORIENTED_EDGE ( 'NONE', *, *, #945, .F. ) ;
#655 = CARTESIAN_POINT ( 'NONE',  ( -21.50000000000000000, 22.00000000000000355, -9.500000000000000000 ) ) ;
#656 = DIRECTION ( 'NONE',  ( 1.000000000000000000, 0.000000000000000000, -1.224646799147351728E-16 ) ) ;
#657 = ORIENTED_EDGE ( 'NONE', *, *, #203, .F. ) ;
#658 = LINE ( 'NONE', #472, #351 ) ;
#659 = EDGE_LOOP ( 'NONE', ( #465, #697, #53, #232 ) ) ;
#660 = FACE_OUTER_BOUND ( 'NONE', #380, .T. ) ;
#661 = DIRECTION ( 'NONE',  ( -1.224646799147352714E-16, 0.000000000000000000, -1.000000000000000000 ) ) ;
#662 = ORIENTED_EDGE ( 'NONE', *, *, #428, .T. ) ;
#663 = CARTESIAN_POINT ( 'NONE',  ( -19.50000000000000000, 30.50000000000000355, 3.061616997868379197E-16 ) ) ;
#664 = ORIENTED_EDGE ( 'NONE', *, *, #1166, .T. ) ;
#665 = EDGE_CURVE ( 'NONE', #696, #696, #1070, .T. ) ;
#666 = CIRCLE ( 'NONE', #45, 0.5000000000000004441 ) ;
#667 = VERTEX_POINT ( 'NONE', #817 ) ;
#668 = VECTOR ( 'NONE', #950, 1000.000000000000000 ) ;
#669 = DIRECTION ( 'NONE',  ( -0.000000000000000000, 0.000000000000000000, 1.000000000000000000 ) ) ;
#670 = AXIS2_PLACEMENT_3D ( 'NONE', #731, #1109, #1196 ) ;
#671 = CARTESIAN_POINT ( 'NONE',  ( 21.50000000000000000, 1.500000000000000000, -11.50000000000000000 ) ) ;
#672 = LINE ( 'NONE', #784, #723 ) ;
#673 = DIRECTION ( 'NONE',  ( -0.000000000000000000, 1.000000000000000000, 0.000000000000000000 ) ) ;
#674 = ORIENTED_EDGE ( 'NONE', *, *, #678, .F. ) ;
#675 = VERTEX_POINT ( 'NONE', #932 ) ;
#676 = CARTESIAN_POINT ( 'NONE',  ( 16.50000000000000000, 0.000000000000000000, -6.499999999999997335 ) ) ;
#677 = DIRECTION ( 'NONE',  ( 0.000000000000000000, -0.000000000000000000, -1.000000000000000000 ) ) ;
#678 = EDGE_CURVE ( 'NONE', #831, #532, #1047, .T. ) ;
#679 = VERTEX_POINT ( 'NONE', #439 ) ;
#680 = VERTEX_POINT ( 'NONE', #512 ) ;
#681 = VERTEX_POINT ( 'NONE', #1194 ) ;
#682 = EDGE_LOOP ( 'NONE', ( #1060, #842, #506, #315, #123, #481, #262, #1079, #1208, #652 ) ) ;
#683 = DIRECTION ( 'NONE',  ( 1.224646799147352714E-16, -0.000000000000000000, 1.000000000000000000 ) ) ;
#684 = LINE ( 'NONE', #1068, #520 ) ;
#685 = LINE ( 'NONE', #219, #1169 ) ;
#686 = CARTESIAN_POINT ( 'NONE',  ( -21.50000000000000000, 11.00000000000000000, 0.000000000000000000 ) ) ;
#687 = EDGE_CURVE ( 'NONE', #1066, #558, #366, .T. ) ;
#688 = VERTEX_POINT ( 'NONE', #76 ) ;
#689 = AXIS2_PLACEMENT_3D ( 'NONE', #730, #8, #1140 ) ;
#690 = CARTESIAN_POINT ( 'NONE',  ( 16.50000000000000000, 0.000000000000000000, -6.999999999999997335 ) ) ;
#691 = CIRCLE ( 'NONE', #927, 2.249999999999998668 ) ;
#692 = LINE ( 'NONE', #416, #909 ) ;
#693 = CIRCLE ( 'NONE', #952, 0.5000000000000004441 ) ;
#694 = CIRCLE ( 'NONE', #552, 0.9499999999999995115 ) ;
#695 = ORIENTED_EDGE ( 'NONE', *, *, #716, .T. ) ;
#696 = VERTEX_POINT ( 'NONE', #881 ) ;
#697 = ORIENTED_EDGE ( 'NONE', *, *, #98, .F. ) ;
#698 = CARTESIAN_POINT ( 'NONE',  ( -19.49999999999999645, 25.00000000000000000, -6.500000000000000888 ) ) ;
#699 = DIRECTION ( 'NONE',  ( 1.000000000000000000, 0.000000000000000000, -1.224646799147353454E-16 ) ) ;
#700 = CARTESIAN_POINT ( 'NONE',  ( -19.50000000000000000, 30.50000000000000355, 0.000000000000000000 ) ) ;
#701 = VERTEX_POINT ( 'NONE', #559 ) ;
#702 = FACE_BOUND ( 'NONE', #103, .T. ) ;
#703 = CYLINDRICAL_SURFACE ( 'NONE', #69, 3.000000000000000000 ) ;
#704 =( NAMED_UNIT ( * ) SI_UNIT ( $, .STERADIAN. ) SOLID_ANGLE_UNIT ( ) );
#705 = EDGE_CURVE ( 'NONE', #863, #768, #529, .T. ) ;
#706 = DIRECTION ( 'NONE',  ( 0.000000000000000000, 0.000000000000000000, -1.000000000000000000 ) ) ;
#707 = LINE ( 'NONE', #799, #589 ) ;
#708 = AXIS2_PLACEMENT_3D ( 'NONE', #676, #777, #393 ) ;
#709 = VECTOR ( 'NONE', #162, 1000.000000000000000 ) ;
#710 = AXIS2_PLACEMENT_3D ( 'NONE', #865, #1130, #955 ) ;
#711 = FACE_OUTER_BOUND ( 'NONE', #1138, .T. ) ;
#712 = CARTESIAN_POINT ( 'NONE',  ( -18.50000000000000000, 32.50000000000000000, 0.000000000000000000 ) ) ;
#713 = EDGE_CURVE ( 'NONE', #976, #976, #473, .T. ) ;
#714 = EDGE_LOOP ( 'NONE', ( #288, #544, #876, #1131 ) ) ;
#715 = DIRECTION ( 'NONE',  ( 1.000000000000000000, 0.000000000000000000, -0.000000000000000000 ) ) ;
#716 = EDGE_CURVE ( 'NONE', #726, #327, #355, .T. ) ;
#717 = DIRECTION ( 'NONE',  ( -0.000000000000000000, -0.000000000000000000, -1.000000000000000000 ) ) ;
#718 = ADVANCED_FACE ( 'NONE', ( #631 ), #170, .F. ) ;
#719 = EDGE_LOOP ( 'NONE', ( #62 ) ) ;
#720 = DIRECTION ( 'NONE',  ( 1.000000000000000000, 0.000000000000000000, 0.000000000000000000 ) ) ;
#721 = CARTESIAN_POINT ( 'NONE',  ( -17.49999999999999645, 8.500000000000000000, 12.36396103067892938 ) ) ;
#722 = AXIS2_PLACEMENT_3D ( 'NONE', #43, #802, #432 ) ;
#723 = VECTOR ( 'NONE', #24, 1000.000000000000000 ) ;
#724 = EDGE_CURVE ( 'NONE', #1136, #1146, #361, .T. ) ;
#725 = CIRCLE ( 'NONE', #769, 0.5000000000000004441 ) ;
#726 = VERTEX_POINT ( 'NONE', #342 ) ;
#727 = DIRECTION ( 'NONE',  ( 0.000000000000000000, 0.000000000000000000, 1.000000000000000000 ) ) ;
#728 = ORIENTED_EDGE ( 'NONE', *, *, #519, .T. ) ;
#729 = ADVANCED_FACE ( 'NONE', ( #49 ), #60, .T. ) ;
#730 = CARTESIAN_POINT ( 'NONE',  ( -19.50000000000000000, 30.50000000000000355, 0.000000000000000000 ) ) ;
#731 = CARTESIAN_POINT ( 'NONE',  ( -17.49999999999999645, 8.500000000000000000, 0.000000000000000000 ) ) ;
#732 = VERTEX_POINT ( 'NONE', #832 ) ;
#733 = CYLINDRICAL_SURFACE ( 'NONE', #790, 0.5000000000000004441 ) ;
#734 = ORIENTED_EDGE ( 'NONE', *, *, #286, .F. ) ;
#735 = DIRECTION ( 'NONE',  ( 1.224646799147352714E-16, -0.000000000000000000, 1.000000000000000000 ) ) ;
#736 = DIRECTION ( 'NONE',  ( 1.000000000000000000, 0.000000000000000000, -1.224646799147351482E-16 ) ) ;
#737 = ORIENTED_EDGE ( 'NONE', *, *, #234, .F. ) ;
#738 = PLANE ( 'NONE',  #92 ) ;
#739 = ORIENTED_EDGE ( 'NONE', *, *, #1083, .T. ) ;
#740 = EDGE_CURVE ( 'NONE', #688, #759, #1101, .T. ) ;
#741 = CARTESIAN_POINT ( 'NONE',  ( 0.000000000000000000, 1.500000000000000000, -9.500000000000000000 ) ) ;
#742 = DIRECTION ( 'NONE',  ( 0.000000000000000000, -1.000000000000000000, -0.000000000000000000 ) ) ;
#743 = VECTOR ( 'NONE', #178, 1000.000000000000000 ) ;
#744 = ORIENTED_EDGE ( 'NONE', *, *, #630, .T. ) ;
#745 = FACE_OUTER_BOUND ( 'NONE', #221, .T. ) ;
#746 = VECTOR ( 'NONE', #717, 1000.000000000000000 ) ;
#747 = ORIENTED_EDGE ( 'NONE', *, *, #1205, .T. ) ;
#748 = VECTOR ( 'NONE', #307, 1000.000000000000000 ) ;
#749 = LINE ( 'NONE', #1129, #801 ) ;
#750 = LINE ( 'NONE', #1040, #252 ) ;
#751 = ORIENTED_EDGE ( 'NONE', *, *, #324, .T. ) ;
#752 = ADVANCED_FACE ( 'NONE', ( #534 ), #1097, .F. ) ;
#753 = CARTESIAN_POINT ( 'NONE',  ( 18.50000000000000000, 32.50000000000000000, -11.50000000000000000 ) ) ;
#754 = EDGE_LOOP ( 'NONE', ( #903 ) ) ;
#755 = DIRECTION ( 'NONE',  ( -1.000000000000000000, 0.000000000000000000, 0.000000000000000000 ) ) ;
#756 = CARTESIAN_POINT ( 'NONE',  ( 0.000000000000000000, 30.50000000000000355, -9.500000000000000000 ) ) ;
#757 = ORIENTED_EDGE ( 'NONE', *, *, #779, .F. ) ;
#758 = CARTESIAN_POINT ( 'NONE',  ( 21.49999999999999645, 0.000000000000000000, -4.714892376317814179E-15 ) ) ;
#759 = VERTEX_POINT ( 'NONE', #159 ) ;
#760 = ADVANCED_FACE ( 'NONE', ( #539 ), #917, .T. ) ;
#761 = VERTEX_POINT ( 'NONE', #201 ) ;
#762 = CARTESIAN_POINT ( 'NONE',  ( -18.72727272727272663, 6.614184088281001017, 12.36396103067892938 ) ) ;
#763 = CARTESIAN_POINT ( 'NONE',  ( 18.81818181818181657, 26.90403279787190627, -9.500000000000000000 ) ) ;
#764 = SURFACE_STYLE_FILL_AREA ( #389 ) ;
#765 = DIRECTION ( 'NONE',  ( 0.000000000000000000, -0.000000000000000000, 1.000000000000000000 ) ) ;
#766 = ORIENTED_EDGE ( 'NONE', *, *, #519, .F. ) ;
#767 = AXIS2_PLACEMENT_3D ( 'NONE', #770, #1156, #571 ) ;
#768 = VERTEX_POINT ( 'NONE', #189 ) ;
#769 = AXIS2_PLACEMENT_3D ( 'NONE', #296, #765, #197 ) ;
#770 = CARTESIAN_POINT ( 'NONE',  ( -19.49999999999999645, 11.00000000000000000, 0.000000000000000000 ) ) ;
#771 = EDGE_CURVE ( 'NONE', #238, #911, #1168, .T. ) ;
#772 = VECTOR ( 'NONE', #259, 1000.000000000000000 ) ;
#773 = CYLINDRICAL_SURFACE ( 'NONE', #872, 2.999999999999999112 ) ;
#774 = ORIENTED_EDGE ( 'NONE', *, *, #354, .T. ) ;
#775 = CARTESIAN_POINT ( 'NONE',  ( 21.49999999999999645, 29.50000000000000355, 5.903719206355540199E-46 ) ) ;
#776 = ORIENTED_EDGE ( 'NONE', *, *, #41, .F. ) ;
#777 = DIRECTION ( 'NONE',  ( 0.000000000000000000, 1.000000000000000000, -0.000000000000000000 ) ) ;
#778 = FACE_OUTER_BOUND ( 'NONE', #629, .T. ) ;
#779 = EDGE_CURVE ( 'NONE', #963, #532, #289, .T. ) ;
#780 = VERTEX_POINT ( 'NONE', #97 ) ;
#781 = DIRECTION ( 'NONE',  ( -0.000000000000000000, -1.000000000000000000, 0.000000000000000000 ) ) ;
#782 = LINE ( 'NONE', #425, #624 ) ;
#783 = CARTESIAN_POINT ( 'NONE',  ( -17.00000000000000000, 1.500000000000000000, 0.000000000000000000 ) ) ;
#784 = CARTESIAN_POINT ( 'NONE',  ( 19.50000000000000000, 30.50000000000000355, 3.061616997868376239E-16 ) ) ;
#785 = DIRECTION ( 'NONE',  ( -0.000000000000000000, -1.000000000000000000, -0.000000000000000000 ) ) ;
#786 = ORIENTED_EDGE ( 'NONE', *, *, #1185, .T. ) ;
#787 = AXIS2_PLACEMENT_3D ( 'NONE', #322, #905, #699 ) ;
#788 = CARTESIAN_POINT ( 'NONE',  ( 0.000000000000000000, 30.50000000000000355, -9.500000000000000000 ) ) ;
#789 = ORIENTED_EDGE ( 'NONE', *, *, #1192, .F. ) ;
#790 = AXIS2_PLACEMENT_3D ( 'NONE', #1023, #167, #1036 ) ;
#791 = CARTESIAN_POINT ( 'NONE',  ( -21.50000000000000000, 1.500000000000000000, 2.449293598294703949E-16 ) ) ;
#792 = AXIS2_PLACEMENT_3D ( 'NONE', #504, #879, #656 ) ;
#793 = DIRECTION ( 'NONE',  ( -1.000000000000000000, 0.000000000000000000, 0.000000000000000000 ) ) ;
#794 = CARTESIAN_POINT ( 'NONE',  ( 21.49999999999999645, 1.500000000000000000, 6.486357344956759020E-15 ) ) ;
#795 = DIRECTION ( 'NONE',  ( -1.000000000000000000, 0.000000000000000000, 1.224646799147352714E-16 ) ) ;
#796 = CARTESIAN_POINT ( 'NONE',  ( 0.000000000000000000, 32.50000000000000000, 0.000000000000000000 ) ) ;
#797 = EDGE_CURVE ( 'NONE', #414, #458, #577, .T. ) ;
#798 = DIRECTION ( 'NONE',  ( 1.000000000000000000, 0.000000000000000000, 0.000000000000000000 ) ) ;
#799 = CARTESIAN_POINT ( 'NONE',  ( -19.50000000000000000, 30.50000000000000355, -9.500000000000000000 ) ) ;
#800 = DIRECTION ( 'NONE',  ( 0.000000000000000000, -0.000000000000000000, -1.000000000000000000 ) ) ;
#801 = VECTOR ( 'NONE', #276, 1000.000000000000000 ) ;
#802 = DIRECTION ( 'NONE',  ( 1.224646799147352714E-16, -0.000000000000000000, 1.000000000000000000 ) ) ;
#803 = CARTESIAN_POINT ( 'NONE',  ( -19.49999999999999645, 25.00000000000000000, 0.000000000000000000 ) ) ;
#804 = CONICAL_SURFACE ( 'NONE', #1226, 0.9499999999999995115, 1.047197551196598075 ) ;
#805 = VERTEX_POINT ( 'NONE', #655 ) ;
#806 = EDGE_CURVE ( 'NONE', #675, #831, #282, .T. ) ;
#807 = DIRECTION ( 'NONE',  ( -0.000000000000000000, -1.000000000000000000, 0.000000000000000000 ) ) ;
#808 = LINE ( 'NONE', #1189, #1090 ) ;
#809 = EDGE_CURVE ( 'NONE', #680, #680, #453, .T. ) ;
#810 = PRODUCT_CONTEXT ( 'NONE', #627, 'mechanical' ) ;
#811 = VERTEX_POINT ( 'NONE', #961 ) ;
#812 = DIRECTION ( 'NONE',  ( -0.000000000000000000, -0.000000000000000000, -1.000000000000000000 ) ) ;
#813 = FACE_OUTER_BOUND ( 'NONE', #633, .T. ) ;
#814 = ORIENTED_EDGE ( 'NONE', *, *, #1071, .T. ) ;
#815 = DIRECTION ( 'NONE',  ( -3.016910393003144338E-16, 0.000000000000000000, 1.000000000000000000 ) ) ;
#816 = ORIENTED_EDGE ( 'NONE', *, *, #203, .T. ) ;
#817 = CARTESIAN_POINT ( 'NONE',  ( -18.72727272727272663, 10.38581591171899987, -9.499999999999996447 ) ) ;
#818 = DIRECTION ( 'NONE',  ( 0.000000000000000000, 1.000000000000000000, -0.000000000000000000 ) ) ;
#819 = VECTOR ( 'NONE', #553, 1000.000000000000000 ) ;
#820 = CIRCLE ( 'NONE', #89, 2.249999999999998668 ) ;
#821 = VECTOR ( 'NONE', #279, 1000.000000000000000 ) ;
#822 = ORIENTED_EDGE ( 'NONE', *, *, #245, .T. ) ;
#823 = CARTESIAN_POINT ( 'NONE',  ( -19.50000000000000000, 6.195113885676780896, 0.000000000000000000 ) ) ;
#824 = CIRCLE ( 'NONE', #135, 0.5000000000000004441 ) ;
#825 = ORIENTED_EDGE ( 'NONE', *, *, #895, .T. ) ;
#826 = CARTESIAN_POINT ( 'NONE',  ( -19.50000000000000000, 10.80488611432322088, 0.000000000000000000 ) ) ;
#827 = DIRECTION ( 'NONE',  ( -0.000000000000000000, -1.000000000000000000, -0.000000000000000000 ) ) ;
#828 = ORIENTED_EDGE ( 'NONE', *, *, #100, .F. ) ;
#829 = CARTESIAN_POINT ( 'NONE',  ( 15.43826230851009740, 30.00000000000000355, -9.499999999999996447 ) ) ;
#830 = ADVANCED_FACE ( 'NONE', ( #1228, #660 ), #105, .F. ) ;
#831 = VERTEX_POINT ( 'NONE', #1150 ) ;
#832 = CARTESIAN_POINT ( 'NONE',  ( 17.00000000000000000, 1.500000000000000000, -6.499999999999997335 ) ) ;
#833 = DIRECTION ( 'NONE',  ( 1.000000000000000000, -6.938893903907222067E-15, -1.224646799147349509E-16 ) ) ;
#834 = VERTEX_POINT ( 'NONE', #112 ) ;
#835 = DIRECTION ( 'NONE',  ( -1.000000000000000000, 0.000000000000000000, -0.000000000000000000 ) ) ;
#836 = ORIENTED_EDGE ( 'NONE', *, *, #124, .T. ) ;
#837 = DIRECTION ( 'NONE',  ( -0.000000000000000000, 1.000000000000000000, -0.000000000000000000 ) ) ;
#838 = ADVANCED_FACE ( 'NONE', ( #381 ), #299, .F. ) ;
#839 = DIRECTION ( 'NONE',  ( 1.000000000000000000, 0.000000000000000000, -1.224646799147351728E-16 ) ) ;
#840 = VECTOR ( 'NONE', #795, 1000.000000000000000 ) ;
#841 = CIRCLE ( 'NONE', #948, 2.999999999999999112 ) ;
#842 = ORIENTED_EDGE ( 'NONE', *, *, #1083, .F. ) ;
#843 = CARTESIAN_POINT ( 'NONE',  ( -19.50000000000000000, 30.50000000000000355, 0.000000000000000000 ) ) ;
#844 = CIRCLE ( 'NONE', #68, 3.000000000000000888 ) ;
#845 = AXIS2_PLACEMENT_3D ( 'NONE', #185, #661, #566 ) ;
#846 = VERTEX_POINT ( 'NONE', #944 ) ;
#847 = CIRCLE ( 'NONE', #319, 2.999999999999999112 ) ;
#848 = CARTESIAN_POINT ( 'NONE',  ( -17.00000000000000000, 1.500000000000000000, -6.499999999999997335 ) ) ;
#849 = ADVANCED_FACE ( 'NONE', ( #1061, #484 ), #87, .T. ) ;
#850 = CARTESIAN_POINT ( 'NONE',  ( 19.50000000000000000, 26.43826230851010806, -9.499999999999992895 ) ) ;
#851 = EDGE_CURVE ( 'NONE', #834, #227, #1221, .T. ) ;
#852 = EDGE_LOOP ( 'NONE', ( #1104 ) ) ;
#853 = CARTESIAN_POINT ( 'NONE',  ( 18.49999999999999645, 32.50000000000000000, 0.000000000000000000 ) ) ;
#854 = EDGE_CURVE ( 'NONE', #446, #1063, #585, .T. ) ;
#855 = ORIENTED_EDGE ( 'NONE', *, *, #533, .T. ) ;
#856 = DIRECTION ( 'NONE',  ( -1.000000000000000000, 0.000000000000000000, 0.000000000000000000 ) ) ;
#857 = EDGE_CURVE ( 'NONE', #1117, #846, #847, .T. ) ;
#858 = DIRECTION ( 'NONE',  ( -0.000000000000000000, -1.000000000000000000, -0.000000000000000000 ) ) ;
#859 = LINE ( 'NONE', #44, #926 ) ;
#860 = LINE ( 'NONE', #663, #32 ) ;
#861 = ORIENTED_EDGE ( 'NONE', *, *, #851, .F. ) ;
#862 = EDGE_CURVE ( 'NONE', #327, #667, #1010, .T. ) ;
#863 = VERTEX_POINT ( 'NONE', #305 ) ;
#864 = DIRECTION ( 'NONE',  ( -1.000000000000000000, 0.000000000000000000, 0.000000000000000000 ) ) ;
#865 = CARTESIAN_POINT ( 'NONE',  ( 17.99999999999999645, 29.00000000000000000, 2.422649730810355617 ) ) ;
#866 = DIRECTION ( 'NONE',  ( 0.000000000000000000, 0.000000000000000000, 1.000000000000000000 ) ) ;
#867 = LINE ( 'NONE', #13, #435 ) ;
#868 = ORIENTED_EDGE ( 'NONE', *, *, #857, .T. ) ;
#869 = VECTOR ( 'NONE', #922, 1000.000000000000000 ) ;
#870 = ORIENTED_EDGE ( 'NONE', *, *, #877, .F. ) ;
#871 = DIRECTION ( 'NONE',  ( 1.000000000000000000, 0.000000000000000000, -1.224646799147353207E-16 ) ) ;
#872 = AXIS2_PLACEMENT_3D ( 'NONE', #1151, #283, #193 ) ;
#873 = CARTESIAN_POINT ( 'NONE',  ( -19.49999999999999645, 10.99999999999999822, -6.500000000000000000 ) ) ;
#874 = ORIENTED_EDGE ( 'NONE', *, *, #635, .F. ) ;
#875 = CARTESIAN_POINT ( 'NONE',  ( -15.54999999999998295, 8.500000000000000000, 2.999999999999999556 ) ) ;
#876 = ORIENTED_EDGE ( 'NONE', *, *, #23, .F. ) ;
#877 = EDGE_CURVE ( 'NONE', #1136, #537, #1067, .T. ) ;
#878 = DIRECTION ( 'NONE',  ( 1.000000000000000000, -0.000000000000000000, 3.016910393003144338E-16 ) ) ;
#879 = DIRECTION ( 'NONE',  ( -1.224646799147352714E-16, 0.000000000000000000, -1.000000000000000000 ) ) ;
#880 = DIRECTION ( 'NONE',  ( 0.000000000000000000, 0.000000000000000000, 1.000000000000000000 ) ) ;
#881 = CARTESIAN_POINT ( 'NONE',  ( 20.24999999999999289, 29.00000000000000000, 2.999999999999995115 ) ) ;
#882 = ORIENTED_EDGE ( 'NONE', *, *, #452, .T. ) ;
#883 = PLANE ( 'NONE',  #267 ) ;
#884 = CARTESIAN_POINT ( 'NONE',  ( -16.50000000000000000, 1.500000000000000000, -6.499999999999997335 ) ) ;
#885 = LINE ( 'NONE', #900, #195 ) ;
#886 = DIRECTION ( 'NONE',  ( -0.000000000000000000, -1.000000000000000000, -0.000000000000000000 ) ) ;
#887 = VERTEX_POINT ( 'NONE', #82 ) ;
#888 = AXIS2_PLACEMENT_3D ( 'NONE', #1215, #735, #649 ) ;
#889 = CARTESIAN_POINT ( 'NONE',  ( -16.50000000000000000, 0.000000000000000000, -6.499999999999997335 ) ) ;
#890 = VECTOR ( 'NONE', #605, 1000.000000000000000 ) ;
#891 = CIRCLE ( 'NONE', #293, 0.5000000000000004441 ) ;
#892 = DIRECTION ( 'NONE',  ( -1.000000000000000000, 0.000000000000000000, 0.000000000000000000 ) ) ;
#893 = VECTOR ( 'NONE', #427, 1000.000000000000000 ) ;
#894 = LINE ( 'NONE', #138, #746 ) ;
#895 = EDGE_CURVE ( 'NONE', #780, #701, #749, .T. ) ;
#896 = CARTESIAN_POINT ( 'NONE',  ( -21.50000000000000000, 10.99999999999999822, -9.500000000000000000 ) ) ;
#897 = ORIENTED_EDGE ( 'NONE', *, *, #1123, .T. ) ;
#898 = FACE_OUTER_BOUND ( 'NONE', #368, .T. ) ;
#899 = ADVANCED_FACE ( 'NONE', ( #1039, #184 ), #883, .T. ) ;
#900 = CARTESIAN_POINT ( 'NONE',  ( -19.50000000000000000, 30.50000000000000355, 3.061616997868379197E-16 ) ) ;
#901 = EDGE_CURVE ( 'NONE', #701, #863, #228, .T. ) ;
#902 = CARTESIAN_POINT ( 'NONE',  ( -2.549591630525155963E-31, 1.500000000000000000, -2.081899558550499885E-15 ) ) ;
#903 = ORIENTED_EDGE ( 'NONE', *, *, #809, .T. ) ;
#904 = EDGE_CURVE ( 'NONE', #681, #1227, #311, .T. ) ;
#905 = DIRECTION ( 'NONE',  ( 1.224646799147352714E-16, -0.000000000000000000, 1.000000000000000000 ) ) ;
#906 = CIRCLE ( 'NONE', #314, 1.950000000000015943 ) ;
#907 = CIRCLE ( 'NONE', #454, 2.999999999999999112 ) ;
#908 = DIRECTION ( 'NONE',  ( 0.000000000000000000, 0.000000000000000000, 1.000000000000000000 ) ) ;
#909 = VECTOR ( 'NONE', #523, 1000.000000000000000 ) ;
#910 = EDGE_CURVE ( 'NONE', #297, #406, #231, .T. ) ;
#911 = VERTEX_POINT ( 'NONE', #690 ) ;
#912 = CYLINDRICAL_SURFACE ( 'NONE', #191, 0.5000000000000004441 ) ;
#913 = CARTESIAN_POINT ( 'NONE',  ( 0.000000000000000000, 0.000000000000000000, 0.000000000000000000 ) ) ;
#914 = ORIENTED_EDGE ( 'NONE', *, *, #1185, .F. ) ;
#915 = CARTESIAN_POINT ( 'NONE',  ( -19.49999999999999645, 11.00000000000000000, 0.000000000000000000 ) ) ;
#916 = EDGE_LOOP ( 'NONE', ( #1000, #359, #822, #943, #734, #855, #441, #897, #960, #664, #640, #636, #166, #363, #1075, #1186 ) ) ;
#917 = PLANE ( 'NONE',  #689 ) ;
#918 = DIRECTION ( 'NONE',  ( 1.000000000000000000, 0.000000000000000000, 0.000000000000000000 ) ) ;
#919 = VERTEX_POINT ( 'NONE', #1011 ) ;
#920 = CARTESIAN_POINT ( 'NONE',  ( 18.81818181818181657, 26.90403279787190627, 12.36396103067892938 ) ) ;
#921 = ORIENTED_EDGE ( 'NONE', *, *, #713, .F. ) ;
#922 = DIRECTION ( 'NONE',  ( 0.000000000000000000, 0.000000000000000000, -1.000000000000000000 ) ) ;
#923 = ADVANCED_FACE ( 'NONE', ( #977 ), #237, .F. ) ;
#924 = DIRECTION ( 'NONE',  ( 0.000000000000000000, 0.000000000000000000, 1.000000000000000000 ) ) ;
#925 = AXIS2_PLACEMENT_3D ( 'NONE', #643, #345, #637 ) ;
#926 = VECTOR ( 'NONE', #1093, 1000.000000000000000 ) ;
#927 = AXIS2_PLACEMENT_3D ( 'NONE', #536, #223, #598 ) ;
#928 = VERTEX_POINT ( 'NONE', #606 ) ;
#929 = CARTESIAN_POINT ( 'NONE',  ( 17.00000000000000000, 0.000000000000000000, -0.000000000000000000 ) ) ;
#930 = VECTOR ( 'NONE', #356, 1000.000000000000000 ) ;
#931 = EDGE_LOOP ( 'NONE', ( #774 ) ) ;
#932 = CARTESIAN_POINT ( 'NONE',  ( -17.00000000000000000, 0.000000000000000000, -6.499999999999997335 ) ) ;
#933 = DIRECTION ( 'NONE',  ( 0.000000000000000000, 0.000000000000000000, 1.000000000000000000 ) ) ;
#934 = VERTEX_POINT ( 'NONE', #58 ) ;
#935 = CARTESIAN_POINT ( 'NONE',  ( -21.50000000000000000, 0.000000000000000000, -11.50000000000000000 ) ) ;
#936 = EDGE_LOOP ( 'NONE', ( #260, #861, #391, #467 ) ) ;
#937 = EDGE_CURVE ( 'NONE', #285, #285, #149, .T. ) ;
#938 = DIRECTION ( 'NONE',  ( 1.000000000000000000, 0.000000000000000000, 1.224646799147352714E-16 ) ) ;
#939 = CARTESIAN_POINT ( 'NONE',  ( -19.50000000000000000, 10.80488611432322799, -9.500000000000000000 ) ) ;
#940 = ORIENTED_EDGE ( 'NONE', *, *, #360, .F. ) ;
#941 = DIRECTION ( 'NONE',  ( 0.000000000000000000, 0.000000000000000000, 1.000000000000000000 ) ) ;
#942 = EDGE_CURVE ( 'NONE', #1113, #934, #844, .T. ) ;
#943 = ORIENTED_EDGE ( 'NONE', *, *, #740, .F. ) ;
#944 = CARTESIAN_POINT ( 'NONE',  ( -21.50000000000000000, 29.50000000000000355, 2.449293598294703949E-16 ) ) ;
#945 = EDGE_CURVE ( 'NONE', #1085, #675, #419, .T. ) ;
#946 = DIRECTION ( 'NONE',  ( 0.000000000000000000, 0.000000000000000000, 1.000000000000000000 ) ) ;
#947 = AXIS2_PLACEMENT_3D ( 'NONE', #246, #456, #545 ) ;
#948 = AXIS2_PLACEMENT_3D ( 'NONE', #594, #121, #12 ) ;
#949 = ORIENTED_EDGE ( 'NONE', *, *, #280, .F. ) ;
#950 = DIRECTION ( 'NONE',  ( 0.000000000000000000, 0.000000000000000000, 1.000000000000000000 ) ) ;
#951 = UNCERTAINTY_MEASURE_WITH_UNIT (LENGTH_MEASURE( 1.000000000000000082E-05 ), #127, 'distance_accuracy_value', 'NONE');
#952 = AXIS2_PLACEMENT_3D ( 'NONE', #271, #61, #736 ) ;
#953 = ORIENTED_EDGE ( 'NONE', *, *, #183, .T. ) ;
#954 = CARTESIAN_POINT ( 'NONE',  ( 17.99999999999999645, 29.00000000000000000, 12.36396103067892938 ) ) ;
#955 = DIRECTION ( 'NONE',  ( 1.000000000000000000, 0.000000000000000000, 0.000000000000000000 ) ) ;
#956 = EDGE_CURVE ( 'NONE', #1064, #1064, #906, .T. ) ;
#957 = ORIENTED_EDGE ( 'NONE', *, *, #1205, .F. ) ;
#958 = DIRECTION ( 'NONE',  ( 1.000000000000000000, 0.000000000000000000, 0.000000000000000000 ) ) ;
#959 = ORIENTED_EDGE ( 'NONE', *, *, #904, .F. ) ;
#960 = ORIENTED_EDGE ( 'NONE', *, *, #910, .T. ) ;
#961 = CARTESIAN_POINT ( 'NONE',  ( 19.50000000000000000, 26.43826230851011161, 3.061616997868376239E-16 ) ) ;
#962 = CARTESIAN_POINT ( 'NONE',  ( -17.00000000000000000, 0.000000000000000000, 0.000000000000000000 ) ) ;
#963 = VERTEX_POINT ( 'NONE', #34 ) ;
#964 = DIRECTION ( 'NONE',  ( 1.000000000000000000, 0.000000000000000000, 0.000000000000000000 ) ) ;
#965 = ORIENTED_EDGE ( 'NONE', *, *, #851, .T. ) ;
#966 = CARTESIAN_POINT ( 'NONE',  ( -2.549591630525155963E-31, 0.000000000000000000, -2.081899558550499885E-15 ) ) ;
#967 = DIRECTION ( 'NONE',  ( 1.000000000000000000, 0.000000000000000000, 0.000000000000000000 ) ) ;
#968 = ADVANCED_FACE ( 'NONE', ( #320 ), #983, .T. ) ;
#969 = ORIENTED_EDGE ( 'NONE', *, *, #1123, .F. ) ;
#970 =( LENGTH_UNIT ( ) NAMED_UNIT ( * ) SI_UNIT ( .MILLI., .METRE. ) );
#971 = EDGE_LOOP ( 'NONE', ( #19, #607, #1044, #175 ) ) ;
#972 = VECTOR ( 'NONE', #409, 1000.000000000000000 ) ;
#973 = CARTESIAN_POINT ( 'NONE',  ( 21.50000000000000000, 29.50000000000000355, -11.50000000000000000 ) ) ;
#974 = DIRECTION ( 'NONE',  ( 1.000000000000000000, 0.000000000000000000, -0.000000000000000000 ) ) ;
#975 = EDGE_LOOP ( 'NONE', ( #310 ) ) ;
#976 = VERTEX_POINT ( 'NONE', #211 ) ;
#977 = FACE_OUTER_BOUND ( 'NONE', #199, .T. ) ;
#978 = EDGE_CURVE ( 'NONE', #805, #1193, #21, .T. ) ;
#979 = PLANE ( 'NONE',  #350 ) ;
#980 = LINE ( 'NONE', #440, #420 ) ;
#981 = VERTEX_POINT ( 'NONE', #973 ) ;
#982 = EDGE_CURVE ( 'NONE', #207, #761, #691, .T. ) ;
#983 = CYLINDRICAL_SURFACE ( 'NONE', #269, 2.999999999999999112 ) ;
#984 = CARTESIAN_POINT ( 'NONE',  ( -16.50000000000000000, 1.500000000000000000, -6.999999999999997335 ) ) ;
#985 = ADVANCED_FACE ( 'NONE', ( #119 ), #503, .T. ) ;
#986 = LINE ( 'NONE', #343, #990 ) ;
#987 = APPLICATION_PROTOCOL_DEFINITION ( 'draft international standard', 'automotive_design', 1998, #627 ) ;
#988 = VECTOR ( 'NONE', #669, 1000.000000000000000 ) ;
#989 = DIRECTION ( 'NONE',  ( -1.000000000000000000, -0.000000000000000000, -0.000000000000000000 ) ) ;
#990 = VECTOR ( 'NONE', #908, 1000.000000000000000 ) ;
#991 = EDGE_LOOP ( 'NONE', ( #161, #1200, #737, #495 ) ) ;
#992 = VECTOR ( 'NONE', #673, 1000.000000000000000 ) ;
#993 = DIRECTION ( 'NONE',  ( 0.000000000000000000, -0.000000000000000000, 1.000000000000000000 ) ) ;
#994 = VECTOR ( 'NONE', #292, 1000.000000000000000 ) ;
#995 = EDGE_CURVE ( 'NONE', #207, #1110, #782, .T. ) ;
#996 = ORIENTED_EDGE ( 'NONE', *, *, #937, .F. ) ;
#997 = DIRECTION ( 'NONE',  ( -0.000000000000000000, 0.000000000000000000, -1.000000000000000000 ) ) ;
#998 = SURFACE_STYLE_USAGE ( .BOTH. , #1057 ) ;
#999 = ADVANCED_FACE ( 'NONE', ( #521 ), #429, .F. ) ;
#1000 = ORIENTED_EDGE ( 'NONE', *, *, #507, .T. ) ;
#1001 = DIRECTION ( 'NONE',  ( -0.000000000000000000, 1.000000000000000000, 0.000000000000000000 ) ) ;
#1002 = FACE_OUTER_BOUND ( 'NONE', #251, .T. ) ;
#1003 = EDGE_CURVE ( 'NONE', #558, #1012, #445, .T. ) ;
#1004 = ORIENTED_EDGE ( 'NONE', *, *, #448, .T. ) ;
#1005 = AXIS2_PLACEMENT_3D ( 'NONE', #463, #1006, #715 ) ;
#1006 = DIRECTION ( 'NONE',  ( 0.000000000000000000, -0.000000000000000000, 1.000000000000000000 ) ) ;
#1007 = AXIS2_PLACEMENT_3D ( 'NONE', #794, #878, #514 ) ;
#1008 = CIRCLE ( 'NONE', #337, 0.5000000000000004441 ) ;
#1009 = CARTESIAN_POINT ( 'NONE',  ( 16.50000000000000000, 1.500000000000000000, -6.499999999999997335 ) ) ;
#1010 = CIRCLE ( 'NONE', #479, 0.5000000000000004441 ) ;
#1011 = CARTESIAN_POINT ( 'NONE',  ( -18.50000000000000000, 32.50000000000000000, -11.50000000000000000 ) ) ;
#1012 = VERTEX_POINT ( 'NONE', #758 ) ;
#1013 = DIRECTION ( 'NONE',  ( -1.000000000000000000, 0.000000000000000000, 0.000000000000000000 ) ) ;
#1014 = CARTESIAN_POINT ( 'NONE',  ( 15.90403279787189916, 29.81818181818182012, -3.212764999433213748E-15 ) ) ;
#1015 = ORIENTED_EDGE ( 'NONE', *, *, #806, .T. ) ;
#1016 = LINE ( 'NONE', #79, #709 ) ;
#1017 = ORIENTED_EDGE ( 'NONE', *, *, #142, .T. ) ;
#1018 = EDGE_CURVE ( 'NONE', #532, #1085, #261, .T. ) ;
#1019 = CARTESIAN_POINT ( 'NONE',  ( -19.00000000000000000, 30.00000000000000355, 0.000000000000000000 ) ) ;
#1020 = DIRECTION ( 'NONE',  ( 1.224646799147352714E-16, -0.000000000000000000, 1.000000000000000000 ) ) ;
#1021 = EDGE_CURVE ( 'NONE', #96, #321, #95, .T. ) ;
#1022 = ORIENTED_EDGE ( 'NONE', *, *, #360, .T. ) ;
#1023 = CARTESIAN_POINT ( 'NONE',  ( 19.00000000000000000, 26.43826230851010806, 12.36396103067892938 ) ) ;
#1024 = ORIENTED_EDGE ( 'NONE', *, *, #241, .T. ) ;
#1025 = CARTESIAN_POINT ( 'NONE',  ( 17.99999999999999645, 29.00000000000000000, -9.499999999999996447 ) ) ;
#1026 = DIRECTION ( 'NONE',  ( 0.000000000000000000, 0.000000000000000000, -1.000000000000000000 ) ) ;
#1027 = VECTOR ( 'NONE', #358, 1000.000000000000000 ) ;
#1028 = ORIENTED_EDGE ( 'NONE', *, *, #142, .F. ) ;
#1029 = FACE_OUTER_BOUND ( 'NONE', #496, .T. ) ;
#1030 = AXIS2_PLACEMENT_3D ( 'NONE', #160, #540, #924 ) ;
#1031 = ORIENTED_EDGE ( 'NONE', *, *, #20, .T. ) ;
#1032 = DIRECTION ( 'NONE',  ( -1.224646799147352714E-16, 0.000000000000000000, -1.000000000000000000 ) ) ;
#1033 = DIRECTION ( 'NONE',  ( 0.000000000000000000, 0.000000000000000000, -1.000000000000000000 ) ) ;
#1034 = EDGE_CURVE ( 'NONE', #911, #1085, #1016, .T. ) ;
#1035 = VERTEX_POINT ( 'NONE', #74 ) ;
#1036 = DIRECTION ( 'NONE',  ( -1.000000000000000000, 0.000000000000000000, 0.000000000000000000 ) ) ;
#1037 = EDGE_CURVE ( 'NONE', #348, #761, #379, .T. ) ;
#1038 = VERTEX_POINT ( 'NONE', #753 ) ;
#1039 = FACE_BOUND ( 'NONE', #975, .T. ) ;
#1040 = CARTESIAN_POINT ( 'NONE',  ( 0.000000000000000000, 22.00000000000000355, -9.500000000000000000 ) ) ;
#1041 = ORIENTED_EDGE ( 'NONE', *, *, #797, .T. ) ;
#1042 = DIRECTION ( 'NONE',  ( 0.000000000000000000, 0.000000000000000000, -1.000000000000000000 ) ) ;
#1043 = ADVANCED_FACE ( 'NONE', ( #266 ), #459, .F. ) ;
#1044 = ORIENTED_EDGE ( 'NONE', *, *, #1192, .T. ) ;
#1045 = DIRECTION ( 'NONE',  ( 1.000000000000000000, 0.000000000000000000, -1.927470528863118556E-16 ) ) ;
#1046 = PLANE ( 'NONE',  #317 ) ;
#1047 = CIRCLE ( 'NONE', #516, 0.5000000000000004441 ) ;
#1048 = VECTOR ( 'NONE', #866, 1000.000000000000000 ) ;
#1049 = CARTESIAN_POINT ( 'NONE',  ( 17.00000000000000000, 1.500000000000000000, 0.000000000000000000 ) ) ;
#1050 = DIRECTION ( 'NONE',  ( 0.000000000000000000, 0.000000000000000000, 1.000000000000000000 ) ) ;
#1051 =( GEOMETRIC_REPRESENTATION_CONTEXT ( 3 ) GLOBAL_UNCERTAINTY_ASSIGNED_CONTEXT ( ( #242 ) ) GLOBAL_UNIT_ASSIGNED_CONTEXT ( ( #970, #226, #704 ) ) REPRESENTATION_CONTEXT ( 'NONE', 'WORKASPACE' ) );
#1052 = ORIENTED_EDGE ( 'NONE', *, *, #904, .T. ) ;
#1053 = AXIS2_PLACEMENT_3D ( 'NONE', #9, #480, #946 ) ;
#1054 = ORIENTED_EDGE ( 'NONE', *, *, #110, .T. ) ;
#1055 = DIRECTION ( 'NONE',  ( -0.000000000000000000, -0.000000000000000000, -1.000000000000000000 ) ) ;
#1056 = DIRECTION ( 'NONE',  ( 1.000000000000000000, -0.000000000000000000, -0.000000000000000000 ) ) ;
#1057 = SURFACE_SIDE_STYLE ('',( #764 ) ) ;
#1058 = CARTESIAN_POINT ( 'NONE',  ( -17.00000000000000000, 1.500000000000000000, 0.000000000000000000 ) ) ;
#1059 = ORIENTED_EDGE ( 'NONE', *, *, #452, .F. ) ;
#1060 = ORIENTED_EDGE ( 'NONE', *, *, #190, .F. ) ;
#1061 = FACE_OUTER_BOUND ( 'NONE', #1206, .T. ) ;
#1062 = CARTESIAN_POINT ( 'NONE',  ( -19.50000000000000000, 30.00000000000000355, -9.500000000000000000 ) ) ;
#1063 = VERTEX_POINT ( 'NONE', #451 ) ;
#1064 = VERTEX_POINT ( 'NONE', #875 ) ;
#1065 = VERTEX_POINT ( 'NONE', #853 ) ;
#1066 = VERTEX_POINT ( 'NONE', #935 ) ;
#1067 = LINE ( 'NONE', #215, #645 ) ;
#1068 = CARTESIAN_POINT ( 'NONE',  ( -21.50000000000000000, 29.50000000000000355, -11.50000000000000000 ) ) ;
#1069 = ORIENTED_EDGE ( 'NONE', *, *, #80, .F. ) ;
#1070 = CIRCLE ( 'NONE', #888, 2.249999999999998668 ) ;
#1071 = EDGE_CURVE ( 'NONE', #1065, #1117, #658, .T. ) ;
#1072 = VECTOR ( 'NONE', #309, 1000.000000000000000 ) ;
#1073 = DIRECTION ( 'NONE',  ( 0.000000000000000000, 0.000000000000000000, -1.000000000000000000 ) ) ;
#1074 = DIRECTION ( 'NONE',  ( 1.000000000000000000, 0.000000000000000000, -0.000000000000000000 ) ) ;
#1075 = ORIENTED_EDGE ( 'NONE', *, *, #146, .T. ) ;
#1076 = ADVANCED_BREP_SHAPE_REPRESENTATION ( 'Shell Left', ( #72, #14 ), #1051 ) ;
#1077 = LINE ( 'NONE', #128, #250 ) ;
#1078 = ADVANCED_FACE ( 'NONE', ( #548 ), #738, .T. ) ;
#1079 = ORIENTED_EDGE ( 'NONE', *, *, #306, .T. ) ;
#1080 = DIRECTION ( 'NONE',  ( 0.000000000000000000, 0.000000000000000000, 1.000000000000000000 ) ) ;
#1081 = DIRECTION ( 'NONE',  ( 0.000000000000000000, 1.000000000000000000, 0.000000000000000000 ) ) ;
#1082 = DIRECTION ( 'NONE',  ( -0.000000000000000000, -1.000000000000000000, -0.000000000000000000 ) ) ;
#1083 = EDGE_CURVE ( 'NONE', #238, #1146, #466, .T. ) ;
#1084 = DIRECTION ( 'NONE',  ( -1.000000000000000000, 0.000000000000000000, 0.000000000000000000 ) ) ;
#1085 = VERTEX_POINT ( 'NONE', #384 ) ;
#1086 = ADVANCED_FACE ( 'NONE', ( #1029 ), #641, .T. ) ;
#1087 = FACE_OUTER_BOUND ( 'NONE', #754, .T. ) ;
#1088 = PRESENTATION_STYLE_ASSIGNMENT (( #998 ) ) ;
#1089 = CARTESIAN_POINT ( 'NONE',  ( 21.49999999999999645, 0.000000000000000000, 6.486357344956759020E-15 ) ) ;
#1090 = VECTOR ( 'NONE', #793, 1000.000000000000000 ) ;
#1091 = VECTOR ( 'NONE', #543, 1000.000000000000000 ) ;
#1092 = CARTESIAN_POINT ( 'NONE',  ( 19.00000000000000000, 26.43826230851010806, -9.499999999999996447 ) ) ;
#1093 = DIRECTION ( 'NONE',  ( -0.000000000000000000, 1.826024711554533913E-16, 1.000000000000000000 ) ) ;
#1094 = LINE ( 'NONE', #243, #31 ) ;
#1095 = ADVANCED_FACE ( 'NONE', ( #364 ), #1219, .T. ) ;
#1096 = CARTESIAN_POINT ( 'NONE',  ( -19.50000000000000000, 6.195113885676787113, -9.500000000000000000 ) ) ;
#1097 = CYLINDRICAL_SURFACE ( 'NONE', #10, 0.5000000000000004441 ) ;
#1098 = DIRECTION ( 'NONE',  ( 0.000000000000000000, 0.000000000000000000, 1.000000000000000000 ) ) ;
#1099 = ORIENTED_EDGE ( 'NONE', *, *, #1018, .F. ) ;
#1100 = COLOUR_RGB ( '',0.7921568627450980005, 0.8196078431372548767, 0.9333333333333333481 ) ;
#1101 = LINE ( 'NONE', #741, #623 ) ;
#1102 = VECTOR ( 'NONE', #130, 1000.000000000000000 ) ;
#1103 = FACE_OUTER_BOUND ( 'NONE', #210, .T. ) ;
#1104 = ORIENTED_EDGE ( 'NONE', *, *, #273, .F. ) ;
#1105 = DIRECTION ( 'NONE',  ( 1.000000000000000000, 0.000000000000000000, 0.000000000000000000 ) ) ;
#1106 = ORIENTED_EDGE ( 'NONE', *, *, #402, .F. ) ;
#1107 = ADVANCED_FACE ( 'NONE', ( #745 ), #187, .T. ) ;
#1108 = DIRECTION ( 'NONE',  ( 0.000000000000000000, 0.000000000000000000, 1.000000000000000000 ) ) ;
#1109 = DIRECTION ( 'NONE',  ( -1.224646799147352714E-16, 0.000000000000000000, -1.000000000000000000 ) ) ;
#1110 = VERTEX_POINT ( 'NONE', #369 ) ;
#1111 = DIRECTION ( 'NONE',  ( 1.000000000000000000, 0.000000000000000000, 0.000000000000000000 ) ) ;
#1112 = EDGE_CURVE ( 'NONE', #667, #385, #274, .T. ) ;
#1113 = VERTEX_POINT ( 'NONE', #653 ) ;
#1114 = CARTESIAN_POINT ( 'NONE',  ( 17.00000000000000000, 1.500000000000000000, 0.000000000000000000 ) ) ;
#1115 = ADVANCED_FACE ( 'NONE', ( #568 ), #733, .F. ) ;
#1116 = PLANE ( 'NONE',  #50 ) ;
#1117 = VERTEX_POINT ( 'NONE', #181 ) ;
#1118 = DIRECTION ( 'NONE',  ( -0.000000000000000000, -0.000000000000000000, 1.000000000000000000 ) ) ;
#1119 = VERTEX_POINT ( 'NONE', #85 ) ;
#1120 = CARTESIAN_POINT ( 'NONE',  ( 19.00000000000000000, 26.43826230851010806, -3.469446951953614189E-15 ) ) ;
#1121 = AXIS2_PLACEMENT_3D ( 'NONE', #1025, #442, #720 ) ;
#1122 = CARTESIAN_POINT ( 'NONE',  ( -19.00000000000000000, 10.80488611432322266, 0.000000000000000000 ) ) ;
#1123 = EDGE_CURVE ( 'NONE', #1110, #297, #371, .T. ) ;
#1124 = ORIENTED_EDGE ( 'NONE', *, *, #665, .F. ) ;
#1125 = CARTESIAN_POINT ( 'NONE',  ( -18.72727272727272663, 10.38581591171899987, 12.36396103067892938 ) ) ;
#1126 = CIRCLE ( 'NONE', #593, 3.000000000000000000 ) ;
#1127 = EDGE_CURVE ( 'NONE', #963, #732, #891, .T. ) ;
#1128 = ORIENTED_EDGE ( 'NONE', *, *, #23, .T. ) ;
#1129 = CARTESIAN_POINT ( 'NONE',  ( -21.50000000000000000, 25.00000000000000000, -9.500000000000000000 ) ) ;
#1130 = DIRECTION ( 'NONE',  ( 0.000000000000000000, 0.000000000000000000, 1.000000000000000000 ) ) ;
#1131 = ORIENTED_EDGE ( 'NONE', *, *, #475, .F. ) ;
#1132 = DIRECTION ( 'NONE',  ( 0.000000000000000000, 0.000000000000000000, -1.000000000000000000 ) ) ;
#1133 = VERTEX_POINT ( 'NONE', #1144 ) ;
#1134 = CARTESIAN_POINT ( 'NONE',  ( -19.50000000000000000, 30.00000000000000355, 3.061616997868379197E-16 ) ) ;
#1135 = DIRECTION ( 'NONE',  ( 0.000000000000000000, 0.000000000000000000, 1.000000000000000000 ) ) ;
#1136 = VERTEX_POINT ( 'NONE', #407 ) ;
#1137 = LINE ( 'NONE', #116, #1072 ) ;
#1138 = EDGE_LOOP ( 'NONE', ( #825, #522, #287, #583 ) ) ;
#1139 = ORIENTED_EDGE ( 'NONE', *, *, #448, .F. ) ;
#1140 = DIRECTION ( 'NONE',  ( 0.000000000000000000, 0.000000000000000000, -1.000000000000000000 ) ) ;
#1141 = PRODUCT_DEFINITION ( 'UNKNOWN', '', #335, #620 ) ;
#1142 = CARTESIAN_POINT ( 'NONE',  ( -19.50000000000000000, 1.500000000000000000, 0.000000000000000000 ) ) ;
#1143 = EDGE_LOOP ( 'NONE', ( #304, #695, #38, #143, #86 ) ) ;
#1144 = CARTESIAN_POINT ( 'NONE',  ( -19.00000000000000000, 30.50000000000000355, 0.000000000000000000 ) ) ;
#1145 = VECTOR ( 'NONE', #815, 1000.000000000000000 ) ;
#1146 = VERTEX_POINT ( 'NONE', #595 ) ;
#1147 = EDGE_CURVE ( 'NONE', #321, #1035, #860, .T. ) ;
#1148 = AXIS2_PLACEMENT_3D ( 'NONE', #35, #426, #510 ) ;
#1149 = ORIENTED_EDGE ( 'NONE', *, *, #324, .F. ) ;
#1150 = CARTESIAN_POINT ( 'NONE',  ( -17.00000000000000000, 1.500000000000000000, -6.499999999999997335 ) ) ;
#1151 = CARTESIAN_POINT ( 'NONE',  ( 18.49999999999999645, 29.50000000000000355, 5.581284227055815570E-15 ) ) ;
#1152 = ORIENTED_EDGE ( 'NONE', *, *, #1216, .F. ) ;
#1153 = CARTESIAN_POINT ( 'NONE',  ( -21.50000000000000000, 13.99999999999999645, -9.500000000000000000 ) ) ;
#1154 = EDGE_LOOP ( 'NONE', ( #474, #255, #1197, #403 ) ) ;
#1155 = EDGE_LOOP ( 'NONE', ( #1069, #1004, #81, #959 ) ) ;
#1156 = DIRECTION ( 'NONE',  ( 0.000000000000000000, -1.000000000000000000, 1.826024711554533913E-16 ) ) ;
#1157 = DIRECTION ( 'NONE',  ( -0.000000000000000000, -1.000000000000000000, -0.000000000000000000 ) ) ;
#1158 = ADVANCED_FACE ( 'NONE', ( #1160 ), #574, .T. ) ;
#1159 = ORIENTED_EDGE ( 'NONE', *, *, #507, .F. ) ;
#1160 = FACE_OUTER_BOUND ( 'NONE', #564, .T. ) ;
#1161 = EDGE_LOOP ( 'NONE', ( #275, #965, #1159, #1164 ) ) ;
#1162 = CARTESIAN_POINT ( 'NONE',  ( 19.50000000000000000, 30.50000000000000355, 0.000000000000000000 ) ) ;
#1163 = FACE_OUTER_BOUND ( 'NONE', #16, .T. ) ;
#1164 = ORIENTED_EDGE ( 'NONE', *, *, #1112, .T. ) ;
#1165 = VERTEX_POINT ( 'NONE', #122 ) ;
#1166 = EDGE_CURVE ( 'NONE', #406, #414, #725, .T. ) ;
#1167 = ORIENTED_EDGE ( 'NONE', *, *, #90, .T. ) ;
#1168 = CIRCLE ( 'NONE', #708, 0.5000000000000004441 ) ;
#1169 = VECTOR ( 'NONE', #94, 1000.000000000000000 ) ;
#1170 = AXIS2_PLACEMENT_3D ( 'NONE', #603, #508, #349 ) ;
#1171 = CIRCLE ( 'NONE', #845, 1.950000000000028155 ) ;
#1172 = DIRECTION ( 'NONE',  ( 1.000000000000000000, 0.000000000000000000, -1.224646799147352714E-16 ) ) ;
#1173 = EDGE_LOOP ( 'NONE', ( #674, #196, #654, #1099 ) ) ;
#1174 = AXIS2_PLACEMENT_3D ( 'NONE', #1187, #993, #338 ) ;
#1175 = DIRECTION ( 'NONE',  ( -0.000000000000000000, -1.000000000000000000, -0.000000000000000000 ) ) ;
#1176 = LINE ( 'NONE', #712, #33 ) ;
#1177 = CARTESIAN_POINT ( 'NONE',  ( 0.000000000000000000, 0.000000000000000000, 0.000000000000000000 ) ) ;
#1178 = DIRECTION ( 'NONE',  ( -0.000000000000000000, -0.000000000000000000, -1.000000000000000000 ) ) ;
#1179 = LINE ( 'NONE', #791, #1201 ) ;
#1180 =( NAMED_UNIT ( * ) PLANE_ANGLE_UNIT ( ) SI_UNIT ( $, .RADIAN. ) );
#1181 = DIRECTION ( 'NONE',  ( 0.000000000000000000, 0.000000000000000000, -1.000000000000000000 ) ) ;
#1182 = ORIENTED_EDGE ( 'NONE', *, *, #90, .F. ) ;
#1183 = DIRECTION ( 'NONE',  ( 0.000000000000000000, -0.000000000000000000, 1.000000000000000000 ) ) ;
#1184 = DIRECTION ( 'NONE',  ( 0.000000000000000000, 0.000000000000000000, 1.000000000000000000 ) ) ;
#1185 = EDGE_CURVE ( 'NONE', #1227, #1063, #1077, .T. ) ;
#1186 = ORIENTED_EDGE ( 'NONE', *, *, #862, .T. ) ;
#1187 = CARTESIAN_POINT ( 'NONE',  ( -19.00000000000000000, 6.195113885676779120, -9.499999999999996447 ) ) ;
#1188 = CIRCLE ( 'NONE', #1030, 3.000000000000000000 ) ;
#1189 = CARTESIAN_POINT ( 'NONE',  ( 0.000000000000000000, 30.50000000000000355, 0.000000000000000000 ) ) ;
#1190 = CARTESIAN_POINT ( 'NONE',  ( 0.000000000000000000, 0.000000000000000000, -11.50000000000000000 ) ) ;
#1191 = FACE_OUTER_BOUND ( 'NONE', #971, .T. ) ;
#1192 = EDGE_CURVE ( 'NONE', #1038, #919, #1137, .T. ) ;
#1193 = VERTEX_POINT ( 'NONE', #1153 ) ;
#1194 = CARTESIAN_POINT ( 'NONE',  ( -19.49999999999999645, 11.00000000000000000, 0.000000000000000000 ) ) ;
#1195 = EDGE_CURVE ( 'NONE', #911, #963, #5, .T. ) ;
#1196 = DIRECTION ( 'NONE',  ( 1.000000000000000000, 0.000000000000000000, -1.224646799147352714E-16 ) ) ;
#1197 = ORIENTED_EDGE ( 'NONE', *, *, #771, .F. ) ;
#1198 = DIRECTION ( 'NONE',  ( -1.224646799147352714E-16, 0.000000000000000000, -1.000000000000000000 ) ) ;
#1199 = EDGE_CURVE ( 'NONE', #1193, #1113, #413, .T. ) ;
#1200 = ORIENTED_EDGE ( 'NONE', *, *, #901, .F. ) ;
#1201 = VECTOR ( 'NONE', #1175, 1000.000000000000000 ) ;
#1202 = CARTESIAN_POINT ( 'NONE',  ( -16.50000000000000000, 1.500000000000000000, -6.499999999999997335 ) ) ;
#1203 = CIRCLE ( 'NONE', #313, 2.250000000000000444 ) ;
#1204 = LINE ( 'NONE', #644, #930 ) ;
#1205 = EDGE_CURVE ( 'NONE', #688, #537, #108, .T. ) ;
#1206 = EDGE_LOOP ( 'NONE', ( #1124 ) ) ;
#1207 = DIRECTION ( 'NONE',  ( -1.000000000000000000, 0.000000000000000000, 0.000000000000000000 ) ) ;
#1208 = ORIENTED_EDGE ( 'NONE', *, *, #687, .T. ) ;
#1209 = EDGE_CURVE ( 'NONE', #981, #1119, #303, .T. ) ;
#1210 = DIRECTION ( 'NONE',  ( -0.000000000000000000, -0.000000000000000000, -1.000000000000000000 ) ) ;
#1211 = FACE_BOUND ( 'NONE', #198, .T. ) ;
#1212 = EDGE_LOOP ( 'NONE', ( #525, #584, #874, #47 ) ) ;
#1213 = DIRECTION ( 'NONE',  ( 0.000000000000000000, -0.000000000000000000, 1.000000000000000000 ) ) ;
#1214 = ORIENTED_EDGE ( 'NONE', *, *, #578, .T. ) ;
#1215 = CARTESIAN_POINT ( 'NONE',  ( 17.99999999999999645, 29.00000000000000000, 2.999999999999995559 ) ) ;
#1216 = EDGE_CURVE ( 'NONE', #681, #726, #867, .T. ) ;
#1217 = FACE_OUTER_BOUND ( 'NONE', #1154, .T. ) ;
#1218 = ORIENTED_EDGE ( 'NONE', *, *, #877, .T. ) ;
#1219 = PLANE ( 'NONE',  #134 ) ;
#1220 = ORIENTED_EDGE ( 'NONE', *, *, #428, .F. ) ;
#1221 = LINE ( 'NONE', #762, #549 ) ;
#1222 = FACE_OUTER_BOUND ( 'NONE', #214, .T. ) ;
#1223 = AXIS2_PLACEMENT_3D ( 'NONE', #1058, #958, #487 ) ;
#1224 = EDGE_LOOP ( 'NONE', ( #444 ) ) ;
#1225 = CARTESIAN_POINT ( 'NONE',  ( -21.50000000000000000, 1.500000000000000000, 0.000000000000000000 ) ) ;
#1226 = AXIS2_PLACEMENT_3D ( 'NONE', #554, #933, #651 ) ;
#1227 = VERTEX_POINT ( 'NONE', #686 ) ;
#1228 = FACE_OUTER_BOUND ( 'NONE', #500, .T. ) ;
#1229 = FACE_OUTER_BOUND ( 'NONE', #719, .T. ) ;
#1230 = LINE ( 'NONE', #505, #418 ) ;
#1231 = DIRECTION ( 'NONE',  ( -1.000000000000000000, 0.000000000000000000, 0.000000000000000000 ) ) ;
ENDSEC;
END-ISO-10303-21;
